<?xml version="1.0" encoding="UTF-8"?>
<svg xmlns="http://www.w3.org/2000/svg" xmlns:xlink="http://www.w3.org/1999/xlink" width="199.47pt" height="243.9pt" viewBox="0 0 199.47 243.9" version="1.1">
<defs>
<clipPath id="clip1">
  <path d="M 0 0 L 199.46875 0 L 199.46875 243.898438 L 0 243.898438 Z M 0 0 "/>
</clipPath>
<clipPath id="clip2">
  <path d="M 96 216 L 161 216 L 161 243.898438 L 96 243.898438 Z M 96 216 "/>
</clipPath>
</defs>
<g id="surface1">
<g clip-path="url(#clip1)" clip-rule="nonzero">
<path style=" stroke:none;fill-rule:evenodd;fill:rgb(13.330078%,9.008789%,7.835388%);fill-opacity:1;" d="M 137.796875 215.660156 C 141.339844 217.949219 144.753906 220.183594 148.195313 222.378906 C 151.484375 224.472656 154.585938 226.792969 157.285156 229.625 C 158.683594 231.085938 159.886719 232.6875 160.832031 234.476563 C 161.050781 234.890625 161.253906 235.34375 161.339844 235.800781 C 161.632813 237.355469 160.898438 238.144531 159.332031 237.980469 C 153.976563 237.425781 148.628906 236.851563 143.273438 236.296875 C 142.429688 236.210938 141.554688 236.292969 140.726563 236.125 C 138.664063 235.699219 137.054688 236.449219 135.476563 237.710938 C 133.136719 239.578125 130.636719 241.25 128.277344 243.097656 C 126.988281 244.113281 125.792969 244.132813 124.433594 243.339844 C 121.667969 241.730469 118.875 240.171875 116.109375 238.5625 C 115.554688 238.242188 115.042969 238.089844 114.378906 238.171875 C 108.867188 238.859375 103.34375 239.402344 97.789063 239.636719 C 95.78125 239.726563 95.457031 239.222656 96.175781 237.289063 C 97.484375 233.761719 99.59375 230.71875 101.914063 227.808594 C 102.039063 227.652344 102.175781 227.503906 102.429688 227.207031 C 100.25 227.375 98.242188 227.527344 96.234375 227.679688 C 88.410156 228.28125 80.585938 228.574219 72.742188 228.082031 C 67.574219 227.761719 62.398438 227.554688 57.289063 226.625 C 56.871094 226.546875 56.683594 226.78125 56.410156 226.976563 C 51.179688 230.667969 45.988281 234.425781 40.109375 237.070313 C 38.871094 237.628906 37.589844 238.089844 36.34375 238.636719 C 35.457031 239.027344 34.878906 238.734375 34.359375 237.984375 C 33.253906 236.386719 32.0625 234.851563 30.984375 233.238281 C 30.371094 232.328125 29.601563 232.164063 28.609375 232.3125 C 24.300781 232.964844 19.984375 233.5625 15.679688 234.238281 C 13.15625 234.632813 13.160156 234.675781 12.6875 232.203125 C 12.519531 231.332031 12.3125 230.472656 12.167969 229.597656 C 12.074219 229.011719 11.859375 228.859375 11.222656 228.933594 C 8.417969 229.257813 5.601563 229.53125 2.78125 229.753906 C 2.019531 229.8125 0.964844 230.257813 0.539063 229.351563 C 0.105469 228.429688 0.980469 227.726563 1.570313 227.097656 C 5.832031 222.515625 11.078125 219.285156 16.527344 216.367188 C 19.078125 215 21.710938 213.800781 24.578125 213.007813 C 24.164063 212.421875 23.582031 212.117188 23.082031 211.734375 C 14.726563 205.328125 8.789063 197.074219 4.28125 187.640625 C 0.742188 180.234375 -0.367188 172.457031 0.101563 164.382813 C 0.683594 154.324219 4.273438 145.164063 8.726563 136.285156 C 9.929688 133.882813 11.167969 131.492188 12.597656 129.210938 C 12.832031 128.835938 12.890625 128.625 12.441406 128.339844 C 9.878906 126.703125 8.109375 124.320313 6.472656 121.835938 C 3.339844 117.082031 1.808594 111.765625 0.890625 106.195313 C -0.511719 97.652344 0.046875 89.261719 2.886719 81.101563 C 5.320313 74.109375 9.191406 67.925781 14.25 62.488281 C 16.757813 59.796875 19.171875 57.015625 21.648438 54.292969 C 22.089844 53.804688 22.269531 53.304688 22.257813 52.640625 C 22.203125 49.15625 22.8125 45.789063 24.339844 42.636719 C 26.070313 39.066406 28.742188 36.359375 32.175781 34.402344 C 32.765625 34.066406 33.039063 33.695313 33.160156 33.015625 C 33.816406 29.253906 37.246094 25.921875 41.480469 25.109375 C 45.207031 24.394531 48.945313 24.511719 52.574219 25.757813 C 53.132813 25.949219 53.40625 25.683594 53.761719 25.460938 C 58.789063 22.261719 64.148438 19.78125 69.910156 18.234375 C 74.605469 16.972656 79.417969 16.496094 84.261719 16.328125 C 89.613281 16.148438 94.964844 16.285156 100.277344 17.035156 C 101.03125 17.140625 101.019531 16.703125 101.164063 16.265625 C 102.699219 11.714844 104.421875 7.242188 106.984375 3.148438 C 107.179688 2.828125 107.390625 2.519531 107.605469 2.210938 C 109.191406 -0.0585938 110.757813 -0.511719 113.347656 0.550781 C 113.441406 0.589844 113.527344 0.644531 113.621094 0.6875 C 115.636719 1.605469 115.65625 1.648438 114.480469 3.507813 C 111.691406 7.914063 109.027344 12.382813 107.335938 17.355469 C 107.238281 17.640625 107.132813 17.929688 107.035156 18.210938 C 107.125 18.257813 107.183594 18.292969 107.242188 18.320313 C 108.71875 18.972656 109.679688 18.691406 110.90625 17.375 C 116.503906 11.363281 122.761719 6.121094 130.097656 2.296875 C 131.027344 1.808594 132.007813 1.398438 133.003906 1.0625 C 134.738281 0.480469 136.15625 1.0625 137.09375 2.640625 C 137.691406 3.648438 138.046875 4.738281 138.257813 5.890625 C 138.398438 6.664063 138.175781 7.105469 137.445313 7.511719 C 132.867188 10.0625 128.308594 12.652344 123.773438 15.28125 C 120.976563 16.902344 118.371094 18.820313 115.691406 20.773438 C 116.175781 21.179688 116.574219 21.238281 117.101563 21.007813 C 122.660156 18.585938 128.542969 17.3125 134.464844 16.191406 C 135.800781 15.941406 137.171875 15.871094 138.523438 15.71875 C 139.132813 15.652344 139.484375 15.898438 139.613281 16.515625 C 140.007813 18.390625 139.777344 20.246094 139.507813 22.101563 C 139.425781 22.636719 139.019531 22.6875 138.59375 22.71875 C 136.382813 22.871094 134.171875 23.003906 131.964844 23.199219 C 129.015625 23.460938 126.066406 23.773438 123.058594 24.074219 C 123.1875 24.5625 123.597656 24.613281 123.890625 24.765625 C 130.183594 28.097656 135.773438 32.347656 140.59375 37.585938 C 146.945313 44.480469 150.550781 52.683594 152.070313 61.902344 C 153.28125 60.835938 154.511719 59.734375 155.761719 58.660156 C 156.59375 57.949219 156.773438 58.015625 156.941406 59.074219 C 157.632813 63.34375 158.351563 67.601563 159.394531 71.804688 C 160.746094 77.238281 163.859375 81.6875 167.210938 86.011719 C 170.550781 90.320313 174.089844 94.476563 177.308594 98.878906 C 181.273438 104.300781 185.21875 109.78125 187.425781 116.1875 C 191.269531 127.351563 189.117188 137.472656 180.851563 145.863281 C 175.859375 150.929688 169.519531 153.574219 162.195313 153.167969 C 161.496094 153.128906 161.332031 153.300781 161.378906 153.976563 C 161.472656 155.367188 161.433594 155.351563 162.734375 155 C 171.648438 152.59375 180.617188 150.46875 189.820313 149.507813 C 192.566406 149.222656 195.328125 149.046875 198.085938 149.382813 C 199.445313 149.550781 199.714844 149.976563 199.292969 151.3125 C 198.0625 155.214844 196.023438 158.71875 193.820313 162.121094 C 189.976563 168.0625 185.296875 173.355469 180.613281 178.628906 C 174.5625 185.433594 168.335938 192.070313 161.15625 197.726563 C 157.027344 200.980469 152.726563 203.96875 147.960938 206.234375 C 147.703125 206.355469 147.503906 206.511719 147.320313 206.71875 C 144.414063 209.9375 141.3125 212.949219 137.796875 215.660156 "/>
</g>
<path style=" stroke:none;fill-rule:evenodd;fill:rgb(93.359375%,70.506287%,20.776367%);fill-opacity:1;" d="M 82.222656 227.566406 C 77.617188 227.742188 73.027344 227.386719 68.433594 227.128906 C 62.546875 226.796875 56.714844 226.050781 50.992188 224.539063 C 42.144531 222.199219 33.957031 218.417969 26.410156 213.28125 C 16.691406 206.664063 9.804688 197.714844 4.828125 187.125 C 1.140625 179.277344 0.207031 171.070313 0.972656 162.605469 C 1.867188 152.769531 5.636719 143.839844 10.097656 135.160156 C 12.144531 131.183594 14.453125 127.371094 17.128906 123.785156 C 17.167969 123.730469 17.214844 123.679688 17.242188 123.621094 C 17.371094 123.371094 17.800781 123.117188 17.46875 122.847656 C 17.117188 122.5625 16.949219 123.027344 16.789063 123.238281 C 15.863281 124.460938 14.953125 125.691406 14.058594 126.9375 C 13.246094 128.070313 13.246094 128.097656 12.113281 127.242188 C 9.988281 125.632813 8.421875 123.527344 6.988281 121.320313 C 4.003906 116.722656 2.429688 111.613281 1.640625 106.230469 C 1.0625 102.28125 0.675781 98.332031 0.960938 94.324219 C 1.582031 85.609375 4.289063 77.636719 9.042969 70.300781 C 11.886719 65.914063 15.539063 62.246094 18.976563 58.378906 C 19.246094 58.074219 19.515625 57.761719 19.8125 57.484375 C 21.949219 55.496094 23.003906 53.230469 23.167969 50.132813 C 23.671875 40.652344 30.480469 33.949219 39.683594 32.703125 C 41.242188 32.496094 42.816406 32.585938 44.414063 32.90625 C 44.332031 33.34375 43.960938 33.558594 43.695313 33.828125 C 36.25 41.398438 31.417969 50.441406 28.832031 60.675781 C 27.550781 65.757813 27.492188 71 27.675781 76.222656 C 27.863281 81.664063 29.179688 86.859375 31.382813 91.824219 C 33.40625 96.378906 36.359375 100.179688 40.671875 102.808594 C 41.109375 103.078125 41.226563 103.464844 41.304688 103.90625 C 41.671875 106.054688 41.085938 108.003906 39.796875 109.671875 C 37.003906 113.28125 34.078125 116.789063 31.273438 120.394531 C 28.429688 124.054688 25.550781 127.703125 23.398438 131.828125 C 20.953125 136.523438 19.550781 141.496094 19.816406 146.851563 C 20.066406 151.796875 22.089844 155.953125 25.664063 159.289063 C 34.007813 167.078125 43.980469 171.566406 55.171875 173.394531 C 61.460938 174.417969 67.796875 174.171875 74.140625 173.863281 C 83.585938 173.40625 92.4375 170.800781 100.839844 166.585938 C 106.714844 163.640625 111.605469 159.546875 114.878906 153.738281 C 117.125 149.753906 118.179688 145.410156 118.640625 140.894531 C 119.429688 133.210938 118.179688 125.679688 116.890625 118.152344 C 116.535156 116.070313 116.222656 113.988281 116 111.890625 C 115.929688 111.210938 116.039063 110.902344 116.828125 110.734375 C 121.234375 109.800781 125.511719 108.453125 129.578125 106.472656 C 131.574219 105.503906 133.417969 104.3125 135.21875 102.734375 C 135.429688 105.375 135.617188 107.8125 135.820313 110.253906 C 136.5625 119.109375 138.011719 127.816406 141.550781 136.050781 C 143.320313 140.175781 145.449219 144.078125 148.789063 147.199219 C 149.914063 148.253906 151.164063 149.125 152.414063 150.007813 C 152.863281 150.988281 152.679688 152.027344 152.613281 153.027344 C 152.296875 157.863281 151.433594 162.613281 150.253906 167.3125 C 149.109375 171.859375 147.421875 176.207031 145.445313 180.4375 C 143.007813 185.660156 140.257813 190.722656 136.863281 195.394531 C 133.4375 200.109375 129.351563 204.1875 124.65625 207.648438 C 118.914063 211.882813 112.871094 215.632813 106.398438 218.65625 C 99.574219 221.84375 92.703125 224.910156 85.410156 226.910156 C 84.359375 227.199219 83.285156 227.34375 82.222656 227.566406 "/>
<path style=" stroke:none;fill-rule:evenodd;fill:rgb(94.139099%,87.109375%,72.068787%);fill-opacity:1;" d="M 81.199219 172.347656 C 79.203125 172.832031 77.160156 172.949219 75.125 173.082031 C 68.179688 173.53125 61.214844 173.796875 54.332031 172.539063 C 43.46875 170.554688 33.75 166.113281 25.757813 158.367188 C 21.804688 154.535156 20.160156 149.710938 20.546875 144.171875 C 20.960938 138.21875 23.1875 132.96875 26.492188 128.097656 C 30.445313 122.28125 35.011719 116.949219 39.382813 111.457031 C 41.289063 109.058594 42.71875 106.519531 41.894531 103.304688 C 41.375 101.277344 40.488281 99.402344 39.226563 97.71875 C 38.53125 96.792969 37.8125 95.886719 37.109375 94.964844 C 36.316406 93.929688 35.730469 92.78125 35.308594 91.546875 C 34.464844 89.082031 35.085938 87.046875 37.203125 85.53125 C 39.476563 83.902344 42.132813 83.09375 44.71875 82.15625 C 47.722656 81.066406 50.847656 80.332031 53.808594 79.101563 C 56.316406 78.058594 58.574219 76.65625 60.664063 74.925781 C 63.179688 72.84375 65.496094 70.492188 68.429688 68.964844 C 72.402344 66.894531 76.613281 66.285156 81.011719 67.011719 C 82.539063 67.261719 83.9375 67.921875 85.199219 68.820313 C 86.78125 69.945313 88.441406 70.996094 89.851563 72.3125 C 92.464844 74.757813 95.617188 75.960938 98.96875 76.871094 C 103.050781 77.980469 107.257813 78.445313 111.390625 79.285156 C 115.171875 80.054688 118.824219 81.21875 122.390625 82.679688 C 123.246094 83.03125 124.046875 83.488281 124.785156 84.035156 C 125.933594 84.882813 126.546875 85.996094 126.355469 87.46875 C 126.089844 88.492188 125.378906 89.117188 124.496094 89.648438 C 121.046875 91.726563 117.773438 94.046875 114.949219 96.949219 C 114.015625 97.90625 113.195313 98.957031 112.632813 100.167969 C 111.820313 101.90625 111.730469 103.714844 112.355469 105.539063 C 113.15625 107.859375 113.761719 110.242188 114.734375 112.5 C 115.257813 113.722656 115.367188 115.058594 115.773438 116.3125 C 116.460938 119.289063 116.921875 122.304688 117.300781 125.332031 C 117.773438 129.101563 118.34375 132.867188 118.171875 136.683594 C 118.148438 137.121094 118.085938 137.558594 118.039063 137.996094 C 117.347656 141.425781 115.742188 144.410156 113.691406 147.210938 C 110.746094 151.234375 107.507813 155 103.8125 158.34375 C 100.886719 160.996094 97.644531 163.269531 94.390625 165.511719 C 90.503906 168.183594 86.351563 170.351563 81.964844 172.078125 C 81.710938 172.179688 81.433594 172.203125 81.199219 172.347656 "/>
<path style=" stroke:none;fill-rule:evenodd;fill:rgb(93.359375%,70.506287%,20.776367%);fill-opacity:1;" d="M 120.027344 98.671875 C 121.804688 96.046875 124.007813 93.746094 125.714844 91.066406 C 126.402344 89.992188 126.980469 88.902344 127.082031 87.59375 C 127.222656 85.753906 126.539063 84.351563 125.019531 83.320313 C 123.769531 82.46875 122.398438 81.886719 121 81.339844 C 115.894531 79.335938 110.554688 78.304688 105.171875 77.445313 C 102.445313 77.007813 99.757813 76.414063 97.121094 75.585938 C 94.757813 74.839844 92.605469 73.765625 90.722656 72.09375 C 89.226563 70.761719 87.546875 69.632813 85.925781 68.441406 C 82.964844 66.265625 79.605469 65.761719 76.03125 66.058594 C 71.191406 66.457031 67.082031 68.394531 63.46875 71.605469 C 60.082031 74.617188 56.628906 77.574219 52.175781 78.976563 C 50.164063 79.613281 48.164063 80.285156 46.152344 80.917969 C 43.613281 81.714844 41.125 82.636719 38.726563 83.78125 C 34.164063 85.960938 33.117188 89.136719 35.417969 93.640625 C 36.105469 94.988281 37.085938 96.128906 38.011719 97.308594 C 38.730469 98.21875 39.40625 99.160156 39.921875 100.203125 C 40.175781 100.71875 40.40625 101.238281 40.746094 101.96875 C 39.46875 101.289063 38.585938 100.472656 37.710938 99.660156 C 33.757813 95.988281 31.644531 91.277344 30.078125 86.234375 C 28.203125 80.199219 28.175781 74.023438 28.5625 67.8125 C 28.648438 66.433594 28.707031 65.054688 29.054688 63.554688 C 31.242188 69.367188 35.953125 71.527344 41.359375 72.460938 C 46.273438 73.308594 51.140625 72.765625 55.800781 70.859375 C 57.386719 70.207031 58.832031 69.335938 60.050781 68.09375 C 62.207031 65.902344 62.832031 63.304688 61.820313 60.476563 C 59.78125 54.785156 55.597656 51.234375 49.777344 50.109375 C 42.957031 48.792969 36.691406 50.421875 31.242188 55.113281 C 32.84375 51.109375 34.53125 47.257813 36.8125 43.695313 C 44.839844 31.171875 56 22.859375 70.339844 18.875 C 74.160156 17.8125 78.09375 17.371094 82.039063 17.15625 C 88.074219 16.820313 94.109375 16.847656 100.097656 17.730469 C 117.210938 20.246094 131.683594 27.667969 142.671875 41.238281 C 147.1875 46.824219 149.710938 53.40625 151.078125 60.421875 C 151.703125 63.617188 151.253906 64.003906 148.101563 63.367188 C 145.300781 62.804688 142.492188 62.269531 139.683594 61.75 C 137.867188 61.414063 137.703125 61.527344 137.007813 63.238281 C 136.089844 65.511719 135.261719 67.820313 134.605469 70.183594 C 134.453125 70.730469 134.171875 71.046875 133.664063 71.277344 C 131.753906 72.164063 129.789063 72.957031 128 74.09375 C 127.011719 74.71875 127.007813 74.871094 127.898438 75.621094 C 130.03125 77.421875 131.597656 79.617188 132.410156 82.300781 C 133.546875 86.054688 134.316406 89.886719 134.5625 93.808594 C 133.980469 94.996094 132.75 95.324219 131.710938 95.789063 C 128.386719 97.277344 124.910156 98.316406 121.34375 99.039063 C 120.894531 99.128906 120.261719 99.519531 120.027344 98.671875 "/>
<path style=" stroke:none;fill-rule:evenodd;fill:rgb(93.359375%,70.506287%,20.776367%);fill-opacity:1;" d="M 156.246094 59.214844 C 156.855469 63.199219 157.546875 66.980469 158.371094 70.738281 C 159.601563 76.335938 162.480469 81.070313 165.929688 85.527344 C 169.71875 90.4375 173.761719 95.152344 177.386719 100.1875 C 180.996094 105.195313 184.457031 110.308594 186.671875 116.125 C 191.007813 127.515625 187.304688 139.476563 179.324219 146.339844 C 174.828125 150.210938 169.550781 152.5625 163.472656 152.507813 C 157.011719 152.453125 151.796875 149.644531 147.59375 144.863281 C 144.269531 141.085938 142.359375 136.523438 140.710938 131.851563 C 138.339844 125.125 137.28125 118.140625 136.609375 111.070313 C 135.964844 104.324219 135.839844 97.535156 134.988281 90.804688 C 134.59375 87.695313 133.9375 84.632813 132.953125 81.652344 C 132.15625 79.238281 130.757813 77.183594 128.851563 75.519531 C 128.125 74.886719 128.320313 74.636719 129.023438 74.304688 C 130.746094 73.488281 132.433594 72.589844 134.1875 71.855469 C 134.785156 71.609375 135.039063 71.300781 135.191406 70.746094 C 135.90625 68.148438 136.820313 65.625 137.824219 63.125 C 138.085938 62.472656 138.414063 62.253906 139.128906 62.375 C 142.6875 62.980469 146.222656 63.6875 149.742188 64.472656 C 150.5625 64.65625 151.0625 64.5 151.550781 63.804688 C 152.792969 62.039063 154.460938 60.683594 156.246094 59.214844 "/>
<path style=" stroke:none;fill-rule:evenodd;fill:rgb(80.859375%,59.959412%,16.868591%);fill-opacity:1;" d="M 82.222656 227.566406 C 83.851563 226.878906 85.597656 226.59375 87.28125 226.097656 C 90.96875 225.011719 94.527344 223.585938 98.066406 222.109375 C 101.988281 220.472656 105.84375 218.6875 109.628906 216.75 C 115.785156 213.601563 121.542969 209.835938 126.921875 205.496094 C 132.292969 201.164063 136.605469 195.921875 140.097656 189.984375 C 143.710938 183.847656 146.828125 177.476563 149.011719 170.683594 C 150.300781 166.683594 151.140625 162.570313 151.777344 158.414063 C 152.203125 155.628906 152.386719 152.824219 152.414063 150.007813 C 154.886719 151.308594 157.359375 152.609375 160.191406 152.960938 C 160.738281 153.027344 160.652344 153.515625 160.671875 153.84375 C 160.902344 157.519531 161.089844 161.195313 160.902344 164.878906 C 160.695313 168.886719 160.433594 172.898438 159.757813 176.863281 C 158.484375 184.285156 156.589844 191.515625 152.796875 198.097656 C 149.566406 203.710938 145.203125 208.414063 140.335938 212.621094 C 132.101563 219.734375 122.515625 223.878906 111.738281 225.367188 C 104.007813 226.433594 96.242188 227.042969 88.453125 227.429688 C 86.375 227.535156 84.300781 227.625 82.222656 227.566406 "/>
<path style=" stroke:none;fill-rule:evenodd;fill:rgb(93.359375%,70.506287%,20.776367%);fill-opacity:1;" d="M 159.351563 182.792969 C 159.980469 179.523438 160.664063 176.265625 161.019531 172.945313 C 161.582031 167.71875 161.78125 162.484375 161.558594 157.238281 C 161.519531 156.300781 161.816406 155.984375 162.695313 155.746094 C 170.78125 153.574219 178.90625 151.605469 187.222656 150.539063 C 190.734375 150.09375 194.257813 149.71875 197.8125 150.039063 C 198.660156 150.117188 198.875 150.394531 198.601563 151.1875 C 197.914063 153.191406 197.027344 155.097656 196.042969 156.96875 C 193.261719 162.242188 189.664063 166.9375 185.832031 171.46875 C 185.460938 171.910156 185.066406 172.328125 184.679688 172.757813 C 179.386719 177.269531 173.476563 180.730469 167.035156 183.359375 C 164.503906 184.394531 162.183594 183.773438 159.777344 183.195313 C 159.574219 183.144531 159.425781 183 159.351563 182.792969 "/>
<g clip-path="url(#clip2)" clip-rule="nonzero">
<path style=" stroke:none;fill-rule:evenodd;fill:rgb(94.139099%,87.109375%,72.068787%);fill-opacity:1;" d="M 134.1875 218.195313 C 134.210938 218.167969 134.226563 218.132813 134.253906 218.117188 C 135.214844 217.476563 136.15625 216.375 137.144531 216.332031 C 138.074219 216.289063 139.066406 217.339844 140.003906 217.953125 C 144.503906 220.890625 149.175781 223.578125 153.363281 226.972656 C 155.992188 229.109375 158.359375 231.496094 160.035156 234.488281 C 160.371094 235.089844 160.683594 235.695313 160.664063 236.402344 C 160.652344 236.929688 160.472656 237.332031 159.8125 237.269531 C 158.355469 237.136719 156.894531 237.074219 155.453125 236.792969 C 152.472656 236.285156 149.597656 235.335938 146.640625 234.710938 C 143.972656 234.148438 141.28125 233.761719 138.578125 233.445313 C 137.796875 233.351563 137.203125 233.679688 136.652344 234.195313 C 135.386719 235.386719 134.277344 236.722656 133.128906 238.023438 C 132.492188 238.742188 131.71875 239.300781 131.097656 240.023438 C 129.960938 240.886719 128.789063 241.710938 127.695313 242.625 C 126.757813 243.410156 125.859375 243.3125 124.890625 242.757813 C 122.265625 241.257813 119.601563 239.816406 117.019531 238.246094 C 115.90625 237.566406 114.855469 237.363281 113.558594 237.53125 C 108.261719 238.222656 102.945313 238.707031 97.609375 238.921875 C 96.480469 238.964844 96.375 238.867188 96.765625 237.800781 C 98.183594 233.910156 100.480469 230.5625 103.199219 227.476563 C 103.789063 226.804688 104.570313 227.035156 105.289063 226.945313 C 106.515625 226.820313 107.710938 226.84375 108.921875 227.210938 C 111.921875 228.117188 114.996094 228.746094 118.046875 229.472656 C 121.613281 230.324219 124.574219 229.25 127.339844 227.011719 C 129.917969 224.925781 131.730469 222.289063 133.316406 219.449219 C 133.570313 219 133.855469 218.582031 134.1875 218.195313 "/>
</g>
<path style=" stroke:none;fill-rule:evenodd;fill:rgb(94.139099%,87.109375%,72.068787%);fill-opacity:1;" d="M 44.8125 233.773438 C 42.09375 235.40625 39.261719 236.789063 36.285156 237.894531 C 35.613281 238.144531 35.230469 238.015625 34.847656 237.425781 C 33.757813 235.738281 32.5625 234.121094 31.328125 232.535156 C 30.664063 231.6875 29.882813 231.414063 28.824219 231.574219 C 24.113281 232.296875 19.394531 232.957031 14.683594 233.691406 C 13.902344 233.808594 13.65625 233.523438 13.539063 232.839844 C 13.328125 231.632813 13.050781 230.441406 12.839844 229.230469 C 12.699219 228.417969 12.320313 228.09375 11.449219 228.183594 C 8.402344 228.507813 5.347656 228.769531 2.292969 229.042969 C 1.960938 229.074219 1.621094 229.046875 1.234375 229.046875 C 1.292969 228.332031 1.769531 227.929688 2.175781 227.496094 C 6.417969 222.992188 11.605469 219.808594 17.003906 216.933594 C 19.441406 215.636719 21.957031 214.523438 24.609375 213.722656 C 25.171875 213.550781 25.601563 213.605469 26.109375 213.949219 C 27.742188 215.054688 29.421875 216.09375 31.082031 217.160156 C 36.238281 221.265625 41.855469 224.554688 48.054688 226.824219 C 48.308594 226.917969 48.5625 227.019531 48.808594 227.136719 C 49.65625 227.550781 49.789063 227.898438 49.390625 228.765625 C 48.492188 230.722656 46.773438 231.953125 45.269531 233.375 C 45.125 233.515625 44.921875 233.589844 44.8125 233.773438 "/>
<path style=" stroke:none;fill-rule:evenodd;fill:rgb(99.609375%,99.609375%,99.609375%);fill-opacity:1;" d="M 45.914063 50.441406 C 53.191406 50.058594 59.027344 55.382813 60.753906 59.566406 C 62.355469 63.453125 61.433594 66.648438 57.894531 68.945313 C 55.304688 70.628906 52.386719 71.421875 49.355469 71.820313 C 44.925781 72.402344 40.582031 72.152344 36.449219 70.265625 C 34.570313 69.40625 32.84375 68.3125 31.535156 66.683594 C 28.519531 62.925781 28.828125 57.609375 33.238281 54.414063 C 37.039063 51.65625 41.3125 50.417969 45.914063 50.441406 "/>
<path style=" stroke:none;fill-rule:evenodd;fill:rgb(80.859375%,59.959412%,16.868591%);fill-opacity:1;" d="M 159.351563 182.792969 C 163.007813 184.292969 166.371094 183.523438 169.851563 181.898438 C 175.019531 179.484375 179.691406 176.355469 184.226563 172.960938 C 184.355469 172.863281 184.527344 172.824219 184.679688 172.757813 C 182.503906 175.550781 180.117188 178.164063 177.726563 180.769531 C 171.335938 187.726563 164.765625 194.488281 157 199.953125 C 154.476563 201.730469 151.929688 203.464844 148.933594 204.894531 C 150.695313 202.601563 152.335938 200.484375 153.628906 198.132813 C 156.171875 193.511719 157.910156 188.585938 159.140625 183.472656 C 159.195313 183.242188 159.28125 183.019531 159.351563 182.792969 "/>
<path style=" stroke:none;fill-rule:evenodd;fill:rgb(80.859375%,59.959412%,16.868591%);fill-opacity:1;" d="M 120.027344 98.671875 C 120.667969 99.28125 121.351563 98.777344 121.941406 98.644531 C 125.246094 97.902344 128.496094 96.925781 131.601563 95.5625 C 132.640625 95.109375 133.699219 94.601563 134.5625 93.808594 C 134.964844 96.304688 134.898438 98.835938 135.167969 101.339844 C 135.21875 101.828125 134.882813 102.0625 134.578125 102.339844 C 131.847656 104.816406 128.546875 106.261719 125.175781 107.582031 C 122.410156 108.664063 119.542969 109.382813 116.65625 110.0625 C 115.972656 110.222656 115.828125 110.015625 115.804688 109.394531 C 115.761719 108.226563 115.855469 107.070313 116.214844 105.964844 C 117.082031 103.324219 118.394531 100.914063 120.027344 98.671875 "/>
<path style=" stroke:none;fill-rule:evenodd;fill:rgb(28.24707%,24.705505%,22.75238%);fill-opacity:1;" d="M 137.457031 5.960938 C 137.5625 6.472656 137.261719 6.753906 136.792969 7.019531 C 131.625 9.949219 126.363281 12.730469 121.363281 15.953125 C 119.308594 17.273438 117.316406 18.691406 115.351563 20.140625 C 114.886719 20.480469 114.542969 20.496094 114.066406 20.332031 C 113.074219 19.988281 112.074219 19.644531 111.0625 19.363281 C 110.402344 19.179688 110.398438 18.953125 110.808594 18.46875 C 113.0625 15.8125 115.640625 13.511719 118.320313 11.308594 C 120.890625 9.195313 123.457031 7.074219 126.265625 5.289063 C 128.472656 3.886719 130.710938 2.507813 133.246094 1.757813 C 134.804688 1.300781 135.796875 1.742188 136.582031 3.109375 C 137.046875 3.921875 137.460938 5.234375 137.457031 5.960938 "/>
<path style=" stroke:none;fill-rule:evenodd;fill:rgb(80.076599%,68.554688%,59.179688%);fill-opacity:1;" d="M 81.199219 172.347656 C 81.878906 171.824219 82.683594 171.550781 83.460938 171.21875 C 88.644531 169 93.390625 166.054688 97.921875 162.71875 C 101.578125 160.027344 105.054688 157.144531 108.054688 153.746094 C 111.105469 150.289063 114.164063 146.804688 116.199219 142.605469 C 116.921875 141.117188 117.433594 139.535156 118.039063 137.996094 C 117.921875 149.761719 112.9375 158.796875 102.730469 164.730469 C 96.175781 168.542969 89.0625 170.953125 81.605469 172.335938 C 81.472656 172.359375 81.335938 172.34375 81.199219 172.347656 "/>
<path style=" stroke:none;fill-rule:evenodd;fill:rgb(80.076599%,68.554688%,59.179688%);fill-opacity:1;" d="M 134.1875 218.195313 C 132.71875 221.394531 130.894531 224.339844 128.148438 226.632813 C 127.1875 227.441406 126.222656 228.222656 125.128906 228.859375 C 122.878906 230.164063 120.511719 230.292969 118.046875 229.746094 C 114.679688 228.992188 111.300781 228.269531 108.011719 227.214844 C 107.117188 226.925781 106.199219 227.011719 105.289063 226.945313 C 107.171875 226.699219 109.050781 226.414063 110.9375 226.207031 C 118.90625 225.324219 126.277344 222.691406 133.191406 218.6875 C 133.511719 218.503906 133.855469 218.355469 134.1875 218.195313 "/>
<path style=" stroke:none;fill-rule:evenodd;fill:rgb(80.076599%,68.554688%,59.179688%);fill-opacity:1;" d="M 115.773438 116.3125 C 115.0625 115.027344 114.921875 113.542969 114.34375 112.207031 C 113.34375 109.902344 112.671875 107.476563 111.949219 105.078125 C 111.179688 102.511719 111.988281 100.222656 113.578125 98.140625 C 115.480469 95.648438 117.976563 93.832031 120.445313 91.980469 C 121.75 91.003906 123.105469 90.105469 124.539063 89.328125 C 125.347656 88.886719 125.84375 88.179688 126.355469 87.46875 C 126.34375 88.566406 125.882813 89.503906 125.292969 90.386719 C 124.085938 92.195313 122.796875 93.949219 121.410156 95.625 C 119.296875 98.175781 117.539063 100.945313 116.171875 103.972656 C 115.128906 106.289063 114.964844 108.679688 115.238281 111.148438 C 115.425781 112.867188 115.597656 114.589844 115.773438 116.3125 "/>
<path style=" stroke:none;fill-rule:evenodd;fill:rgb(28.24707%,24.705505%,22.75238%);fill-opacity:1;" d="M 110.664063 0.746094 C 111.78125 0.835938 112.859375 1.039063 113.867188 1.601563 C 114.414063 1.90625 114.5 2.125 114.15625 2.675781 C 112.230469 5.792969 110.238281 8.875 108.6875 12.214844 C 107.902344 13.910156 107.136719 15.609375 106.570313 17.394531 C 106.417969 17.878906 106.25 18.109375 105.640625 17.957031 C 104.496094 17.671875 103.324219 17.476563 102.15625 17.316406 C 101.539063 17.230469 101.773438 16.90625 101.847656 16.597656 C 102.273438 14.808594 103.007813 13.128906 103.707031 11.4375 C 104.964844 8.390625 106.214844 5.34375 108.171875 2.652344 C 108.511719 2.1875 108.875 1.742188 109.214844 1.277344 C 109.582031 0.769531 110.085938 0.671875 110.664063 0.746094 "/>
<path style=" stroke:none;fill-rule:evenodd;fill:rgb(28.24707%,24.705505%,22.75238%);fill-opacity:1;" d="M 117.558594 21.621094 C 119.453125 20.78125 121.214844 20.097656 123.035156 19.578125 C 126.585938 18.566406 130.179688 17.71875 133.800781 17.011719 C 135.160156 16.746094 136.554688 16.675781 137.925781 16.484375 C 138.675781 16.378906 139.011719 16.738281 139.0625 17.414063 C 139.164063 18.808594 139.070313 20.195313 138.878906 21.578125 C 138.828125 21.941406 138.605469 21.992188 138.308594 22.011719 C 136.519531 22.140625 134.730469 22.3125 132.9375 22.410156 C 129.722656 22.585938 126.535156 22.960938 123.347656 23.394531 C 122.316406 23.535156 121.304688 23.640625 120.328125 22.992188 C 119.542969 22.472656 118.632813 22.144531 117.558594 21.621094 "/>
<path style=" stroke:none;fill-rule:evenodd;fill:rgb(93.359375%,70.506287%,20.776367%);fill-opacity:1;" d="M 52.171875 26.226563 C 52.015625 26.746094 51.695313 26.847656 51.457031 27.015625 C 49.421875 28.449219 47.464844 29.976563 45.730469 31.769531 C 45.394531 32.117188 45.066406 32.300781 44.566406 32.199219 C 41.15625 31.480469 37.875 32.054688 34.65625 33.234375 C 34.421875 33.320313 34.152344 33.613281 33.917969 33.390625 C 33.707031 33.1875 33.910156 32.867188 33.972656 32.625 C 34.484375 30.632813 35.632813 29.046875 37.273438 27.851563 C 41.921875 24.464844 47.003906 25.28125 52.171875 26.226563 "/>
<path style=" stroke:none;fill-rule:evenodd;fill:rgb(80.076599%,68.554688%,59.179688%);fill-opacity:1;" d="M 44.8125 233.773438 C 45.636719 232.59375 46.769531 231.703125 47.757813 230.679688 C 48.335938 230.082031 48.78125 229.425781 49.167969 228.699219 C 49.542969 227.992188 49.46875 227.632813 48.660156 227.339844 C 45.949219 226.351563 43.289063 225.230469 40.753906 223.835938 C 37.628906 222.117188 34.550781 220.316406 31.832031 217.980469 C 31.550781 217.742188 31.332031 217.433594 31.082031 217.160156 C 33.890625 218.527344 36.628906 220.035156 39.488281 221.300781 C 44.453125 223.5 49.609375 225.070313 54.914063 226.183594 C 55.179688 226.238281 55.441406 226.316406 55.738281 226.394531 C 55.695313 226.496094 55.679688 226.605469 55.621094 226.648438 C 52.195313 229.050781 48.804688 231.507813 45.183594 233.621094 C 45.070313 233.6875 44.9375 233.722656 44.8125 233.773438 "/>
<path style=" stroke:none;fill-rule:evenodd;fill:rgb(80.076599%,68.554688%,59.179688%);fill-opacity:1;" d="M 131.097656 240.023438 C 131.511719 239.0625 132.402344 238.488281 133.035156 237.703125 C 134.136719 236.335938 135.429688 235.113281 136.632813 233.824219 C 137.132813 233.289063 137.757813 233.058594 138.464844 233.132813 C 144.199219 233.722656 149.78125 235.058594 155.304688 236.664063 C 155.363281 236.679688 155.402344 236.75 155.453125 236.792969 C 152.515625 236.5 149.574219 236.226563 146.636719 235.902344 C 144.203125 235.628906 141.765625 235.472656 139.324219 235.332031 C 138.128906 235.257813 137.136719 235.621094 136.199219 236.3125 C 134.511719 237.5625 132.800781 238.789063 131.097656 240.023438 "/>
<path style=" stroke:none;fill-rule:evenodd;fill:rgb(16.868591%,12.547302%,10.984802%);fill-opacity:1;" d="M 87.554688 81.707031 C 87.425781 81.859375 87.332031 81.996094 87.210938 82.109375 C 86.148438 83.097656 85.082031 84.085938 84.007813 85.0625 C 83.84375 85.210938 83.652344 85.460938 83.40625 85.230469 C 83.144531 84.980469 83.421875 84.804688 83.566406 84.644531 C 84.554688 83.523438 85.714844 82.589844 86.882813 81.671875 C 87.015625 81.566406 87.144531 81.4375 87.328125 81.5 C 87.40625 81.527344 87.460938 81.617188 87.554688 81.707031 "/>
<path style=" stroke:none;fill-rule:evenodd;fill:rgb(17.259216%,13.330078%,11.376953%);fill-opacity:1;" d="M 63.824219 81.671875 C 64.738281 81.859375 64.980469 82.429688 65.367188 82.804688 C 66.148438 83.5625 66.777344 84.453125 67.359375 85.371094 C 67.46875 85.546875 67.585938 85.742188 67.382813 85.90625 C 67.324219 85.953125 67.101563 85.898438 67.03125 85.820313 C 65.90625 84.585938 64.921875 83.246094 63.824219 81.671875 "/>
<path style=" stroke:none;fill-rule:evenodd;fill:rgb(13.330078%,9.423828%,7.835388%);fill-opacity:1;" d="M 108.96875 72.523438 C 106.410156 72.554688 102.808594 71.910156 99.3125 70.679688 C 97.851563 70.167969 96.527344 69.410156 95.335938 68.421875 C 90.761719 64.640625 90.359375 58.636719 94.429688 54.304688 C 97.902344 50.613281 102.265625 48.613281 107.207031 47.808594 C 111.597656 47.097656 115.976563 47.105469 120.21875 48.621094 C 124.191406 50.039063 127.609375 52.292969 129.828125 55.996094 C 132.113281 59.820313 132.183594 65.171875 127.382813 68.566406 C 124.617188 70.519531 121.488281 71.34375 118.257813 71.859375 C 115.570313 72.289063 112.855469 72.523438 108.96875 72.523438 "/>
<path style=" stroke:none;fill-rule:evenodd;fill:rgb(15.696716%,12.156677%,10.984802%);fill-opacity:1;" d="M 47.179688 60.019531 C 47.746094 60.039063 48.097656 60.300781 48.097656 60.871094 C 48.097656 61.496094 47.664063 61.785156 47.117188 61.816406 C 46.582031 61.847656 46.207031 61.535156 46.214844 60.964844 C 46.21875 60.355469 46.625 60.089844 47.179688 60.019531 "/>
<path style=" stroke:none;fill-rule:evenodd;fill:rgb(99.609375%,99.609375%,99.609375%);fill-opacity:1;" d="M 110.058594 71.742188 C 106.558594 71.890625 103.101563 71.199219 99.71875 70.0625 C 98.25 69.570313 96.929688 68.804688 95.734375 67.820313 C 91.648438 64.449219 91.210938 59.074219 94.707031 55.070313 C 96.34375 53.195313 98.308594 51.714844 100.550781 50.675781 C 106.757813 47.800781 113.207031 47.222656 119.75 49.25 C 123.75 50.488281 127.136719 52.792969 129.285156 56.515625 C 131.421875 60.210938 131.242188 65.105469 126.777344 68.113281 C 123.90625 70.046875 120.6875 70.773438 117.378906 71.257813 C 114.988281 71.605469 112.574219 71.824219 110.058594 71.742188 "/>
<path style=" stroke:none;fill-rule:evenodd;fill:rgb(15.281677%,11.376953%,10.205078%);fill-opacity:1;" d="M 110.445313 59.414063 C 110.363281 59.972656 110.027344 60.28125 109.4375 60.289063 C 108.878906 60.300781 108.519531 60.015625 108.519531 59.453125 C 108.515625 58.835938 108.9375 58.550781 109.503906 58.539063 C 110.042969 58.527344 110.382813 58.820313 110.445313 59.414063 "/>
</g>
</svg>
