<?xml version="1.0" encoding="utf-8"?>
<!-- Generator: Adobe Illustrator 27.0.0, SVG Export Plug-In . SVG Version: 6.00 Build 0)  -->
<svg version="1.1" id="Layer_1" xmlns="http://www.w3.org/2000/svg" xmlns:xlink="http://www.w3.org/1999/xlink" x="0px" y="0px"
	 viewBox="0 0 512 512" style="enable-background:new 0 0 512 512;" xml:space="preserve">
<style type="text/css">
	.st0{fill:#D2CCCD;}
	.st1{fill:#B2A9AA;}
</style>
<g id="XMLID_1_">
	<path id="XMLID_5_" class="st0" d="M227.1,324.86c0,6.31,4.91,12.62,12.76,12.62c6.87,0,12.76-4.91,12.76-12.48
		c0-6.17-4.07-12.34-12.2-12.34C232.01,312.65,227.1,319.39,227.1,324.86L227.1,324.86z M231.31,324.3c0-4.77,3.23-8.98,8.14-8.98
		c5.75,0,9.54,5.61,9.54,10.66c0,3.79-2.52,8.98-8,8.98C236.22,334.82,231.31,330.89,231.31,324.3"/>
	<path id="XMLID_6_" class="st0" d="M263.86,312.09c0.42,1.26,0.84,2.67,0.84,6.17v11.5c0,0.98,0,3.79-0.84,6.87h5.19
		c-0.56-1.96-0.7-3.65-0.7-5.61v-5.47c3.09,0,4.49,0.42,6.17,1.12l1.82-3.51h-8.14v-8.7c3.23,0.14,4.35,0.14,7.01,1.26l1.96-3.65
		L263.86,312.09"/>
	<path id="XMLID_7_" class="st0" d="M8.98,245.18c0-11.36,0-13.47-0.14-15.85c-0.14-2.52-0.7-3.79-3.23-4.21
		c-0.56-0.14-1.82-0.28-2.95-0.28c-0.84,0-1.26-0.14-1.26-0.7c0-0.56,0.56-0.7,1.68-0.7c3.93,0,8.7,0.28,10.8,0.28
		c2.38,0,17.25,0,18.66-0.14c1.4-0.14,2.67-0.28,3.23-0.42c0.42-0.14,0.84-0.28,1.26-0.28s0.42,0.28,0.42,0.7
		c0,0.56-0.42,1.4-0.56,4.91c-0.14,0.7-0.28,4.07-0.42,4.91c-0.14,0.42-0.28,0.84-0.7,0.84c-0.56,0-0.7-0.42-0.7-0.98
		c0-0.56-0.14-1.82-0.42-2.67c-0.56-1.4-1.26-2.24-5.05-2.67c-1.26-0.14-9.12-0.28-10.52-0.28c-0.42,0-0.56,0.28-0.56,0.7v18.94
		c0,0.56,0.14,0.84,0.56,0.84c1.68,0,10.24,0,11.92-0.14c1.82-0.14,2.95-0.42,3.51-1.12c0.56-0.56,0.84-0.98,1.26-0.98
		c0.28,0,0.56,0.14,0.56,0.56c0,0.42-0.42,1.68-0.56,5.47c-0.14,1.54-0.28,4.49-0.28,5.05c0,0.56,0,1.4-0.7,1.4
		c-0.56,0-0.7-0.28-0.7-0.7c-0.14-0.7-0.14-1.68-0.28-2.67c-0.42-1.54-1.4-2.67-4.21-2.95c-1.4-0.14-8.84-0.28-10.52-0.28
		c-0.42,0-0.42,0.28-0.42,0.7v5.89c0,2.52-0.14,9.4,0,11.5c0.14,5.19,1.4,6.31,8.98,6.31c1.96,0,5.05,0,7.01-0.84
		s2.81-2.52,3.37-5.47c0.14-0.84,0.28-1.12,0.84-1.12c0.56,0,0.56,0.56,0.56,1.4c0,1.68-0.56,6.73-0.98,8.28
		c-0.56,1.96-1.12,1.96-4.07,1.96c-11.22,0-16.27-0.42-20.62-0.42c-1.68,0-6.45,0.28-9.4,0.28c-0.98,0-1.54-0.28-1.54-0.7
		s0.28-0.56,1.26-0.56c1.12,0,1.96-0.14,2.67-0.28c1.54-0.28,1.82-1.96,2.1-4.07c0.42-3.09,0.42-8.98,0.42-15.85L8.98,245.18"/>
	<path id="XMLID_8_" class="st0" d="M63.68,245.18c0-11.36,0-13.47-0.14-15.85c-0.14-2.52-0.7-3.79-3.23-4.21
		c-0.56-0.14-1.82-0.28-2.95-0.28c-0.84,0-1.26-0.14-1.26-0.7c0-0.56,0.56-0.7,1.68-0.7c3.93,0,8.7,0.28,10.8,0.28
		c3.09,0,7.43-0.28,10.8-0.28c9.26,0,12.62,3.09,13.89,4.21c1.68,1.54,3.79,4.91,3.79,8.84c0,10.52-7.72,18.1-18.38,18.1
		c-0.42,0-1.26,0-1.54-0.14c-0.42-0.14-0.84-0.14-0.84-0.7c0-0.56,0.56-0.84,2.1-0.84c4.21,0,9.96-4.63,9.96-12.34
		c0-2.52-0.28-7.43-4.35-11.22c-2.67-2.52-5.75-2.95-7.43-2.95c-1.12,0-2.24,0.14-2.95,0.28c-0.42,0.14-0.56,0.56-0.56,1.4v29.88
		c0,6.87,0,12.76,0.42,15.99c0.28,2.1,0.7,3.79,2.95,4.07c0.98,0.14,2.67,0.28,3.79,0.28c0.84,0,1.12,0.28,1.12,0.56
		c0,0.56-0.56,0.7-1.4,0.7c-4.91,0-9.68-0.28-11.5-0.28c-1.68,0-6.45,0.28-9.4,0.28c-0.98,0-1.54-0.28-1.54-0.7s0.28-0.56,1.26-0.56
		c1.12,0,1.96-0.14,2.67-0.28c1.54-0.28,1.82-1.96,2.1-4.07c0.42-3.09,0.42-8.98,0.42-15.85L63.68,245.18"/>
	<path id="XMLID_9_" class="st0" d="M119.23,245.18c0-11.36,0-13.47-0.14-15.85c-0.14-2.52-0.84-3.79-2.52-4.21
		c-0.84-0.28-1.82-0.28-2.67-0.28c-0.7,0-1.12-0.14-1.12-0.7c0-0.42,0.56-0.56,1.82-0.56c2.81,0,7.57,0.28,9.68,0.28
		c1.82,0,6.31-0.28,9.12-0.28c0.98,0,1.54,0.14,1.54,0.56c0,0.56-0.42,0.7-1.26,0.7c-0.7,0-1.4,0.14-2.24,0.28
		c-1.96,0.42-2.67,1.68-2.81,4.21c-0.14,2.38-0.14,4.49-0.14,15.85v13.19c0,7.29,0,13.19,0.28,16.27c0.28,1.96,0.7,3.37,2.95,3.65
		c0.98,0.14,2.67,0.28,3.79,0.28c0.84,0,1.26,0.28,1.26,0.56c0,0.56-0.56,0.7-1.4,0.7c-4.91,0-9.68-0.28-11.64-0.28
		c-1.68,0-6.45,0.28-9.4,0.28c-0.98,0-1.54-0.28-1.54-0.7s0.28-0.56,1.26-0.56c1.12,0,1.96-0.14,2.67-0.28
		c1.54-0.28,1.96-1.54,2.1-3.79c0.42-3.09,0.42-8.98,0.42-16.27L119.23,245.18"/>
	<path id="XMLID_10_" class="st0" d="M156.12,278.71c-1.26-0.56-1.4-0.84-1.4-2.52c0-4.07,0.28-8.56,0.42-9.82
		c0.14-1.12,0.28-1.96,0.84-1.96c0.7,0,0.7,0.7,0.7,1.26c0,0.98,0.28,2.52,0.7,3.79c1.68,5.47,6.03,7.57,10.66,7.57
		c6.73,0,9.96-4.49,9.96-8.56c0-3.65-1.12-7.15-7.29-11.92l-3.37-2.67c-8.14-6.45-11.08-11.64-11.08-17.67
		c0-8.14,6.87-14.03,17.25-14.03c4.91,0,8,0.7,9.96,1.26c0.7,0.14,0.98,0.42,0.98,0.84c0,0.98-0.28,3.09-0.28,8.98
		c0,1.68-0.28,2.24-0.84,2.24c-0.56,0-0.7-0.42-0.7-1.4c0-0.7-0.42-2.95-1.96-4.91c-1.12-1.4-3.23-3.65-8.14-3.65
		c-5.47,0-8.84,3.23-8.84,7.72c0,3.37,1.68,6.03,7.86,10.8l2.1,1.54c8.98,6.87,12.2,11.92,12.2,19.08c0,4.35-1.68,9.54-7.01,13.05
		c-3.79,2.38-7.86,3.09-11.92,3.09C162.72,280.53,159.35,280.11,156.12,278.71"/>
	<path id="XMLID_13_" class="st0" d="M236.36,277.02c-14.31,0-22.86-12.34-22.86-27.77c0-18.52,9.82-23.29,18.38-23.29
		c12.2,0,21.88,10.38,21.88,27.07C253.62,274.5,241.55,277.02,236.36,277.02L236.36,277.02z M233.28,280.81
		c18.94,0,30.86-13.47,30.86-30.58s-11.5-27.91-30.16-27.91c-22.3,0-30.86,16.55-30.86,29.18
		C203.26,264.82,211.81,280.81,233.28,280.81"/>
	<path id="XMLID_16_" class="st0" d="M297.24,243.64c0-5.89,0-12.34,0.14-14.87c0-0.84,0.28-1.26,0.84-1.54
		c0.56-0.28,3.37-0.56,4.91-0.56c5.75,0,14.31,0.84,21.18,7.43c3.23,3.09,7.15,9.12,7.15,18.66c0,7.72-1.54,14.45-6.31,18.52
		c-4.49,3.93-9.54,5.33-17.11,5.33c-5.89,0-8.84-1.54-9.82-2.95c-0.56-0.84-0.7-3.79-0.84-5.61c-0.14-1.4-0.14-7.15-0.14-15.01
		V243.64L297.24,243.64z M287.84,257.95c0,6.87,0,12.76-0.42,15.85c-0.28,2.1-0.7,3.79-2.1,4.07c-0.7,0.14-1.54,0.28-2.67,0.28
		c-0.84,0-1.26,0.28-1.26,0.56c0,0.56,0.56,0.7,1.54,0.7c2.95,0,7.72-0.28,9.4-0.28c3.79,0,10.38,0.84,15.85,0.84
		c13.75,0,21.6-5.33,24.97-8.84c4.21-4.21,8.14-11.36,8.14-20.76c0-8.84-3.51-15.01-7.29-18.94c-8.14-8.56-20.62-8.56-29.88-8.56
		c-4.49,0-9.12,0.28-11.5,0.28c-2.1,0-6.73-0.28-10.8-0.28c-1.12,0-1.68,0.14-1.68,0.7c0,0.56,0.42,0.7,1.26,0.7
		c0.98,0,2.24,0.14,2.95,0.28c2.52,0.56,3.09,1.68,3.23,4.21c0.14,2.38,0.14,4.49,0.14,15.85L287.84,257.95"/>
	<path id="XMLID_17_" class="st0" d="M362.61,245.18c0-11.36,0-13.47-0.14-15.85c-0.14-2.52-0.7-3.79-3.23-4.21
		c-0.56-0.14-1.82-0.28-2.95-0.28c-0.84,0-1.26-0.14-1.26-0.7c0-0.56,0.56-0.7,1.68-0.7c3.93,0,8.7,0.28,10.8,0.28
		c2.38,0,17.25,0,18.66-0.14c1.4-0.14,2.67-0.28,3.23-0.42c0.42-0.14,0.84-0.28,1.26-0.28s0.42,0.28,0.42,0.7
		c0,0.56-0.42,1.4-0.56,4.91c-0.14,0.7-0.28,4.07-0.42,4.91c-0.14,0.42-0.28,0.84-0.7,0.84c-0.56,0-0.7-0.42-0.7-0.98
		c0-0.56-0.14-1.82-0.42-2.67c-0.56-1.4-1.26-2.24-5.05-2.67c-1.26-0.14-9.12-0.28-10.66-0.28c-0.42,0-0.56,0.28-0.56,0.7v18.94
		c0,0.56,0.14,0.84,0.56,0.84c1.68,0,10.24,0,11.92-0.14c1.82-0.14,2.95-0.42,3.51-1.12c0.56-0.56,0.84-0.98,1.26-0.98
		c0.28,0,0.56,0.14,0.56,0.56c0,0.42-0.42,1.68-0.56,5.47c-0.14,1.54-0.28,4.49-0.28,5.05c0,0.56,0,1.4-0.7,1.4
		c-0.56,0-0.7-0.28-0.7-0.7c-0.14-0.7-0.14-1.68-0.28-2.67c-0.42-1.54-1.4-2.67-4.21-2.95c-1.4-0.14-8.84-0.28-10.52-0.28
		c-0.42,0-0.42,0.28-0.42,0.7v5.89c0,2.52-0.14,9.4,0,11.5c0.14,5.19,1.4,6.31,8.98,6.31c1.96,0,5.05,0,7.01-0.84
		s2.81-2.52,3.37-5.47c0.14-0.84,0.28-1.12,0.84-1.12c0.56,0,0.56,0.56,0.56,1.4c0,1.68-0.56,6.73-0.98,8.28
		c-0.56,1.96-1.12,1.96-4.07,1.96c-11.22,0-16.27-0.42-20.62-0.42c-1.68,0-6.45,0.28-9.4,0.28c-0.98,0-1.54-0.28-1.54-0.7
		s0.28-0.56,1.26-0.56c1.12,0,1.96-0.14,2.67-0.28c1.54-0.28,1.82-1.96,2.1-4.07c0.42-3.09,0.42-8.98,0.42-15.85L362.61,245.18"/>
	<path id="XMLID_18_" class="st0" d="M432.6,245.18c0-11.36,0-13.47-0.14-15.85c-0.14-2.52-0.84-3.79-2.52-4.21
		c-0.84-0.28-1.82-0.28-2.67-0.28c-0.7,0-1.26-0.14-1.26-0.7c0-0.42,0.56-0.56,1.82-0.56c2.81,0,7.57,0.28,9.68,0.28
		c1.82,0,6.31-0.28,9.12-0.28c0.98,0,1.54,0.14,1.54,0.56c0,0.56-0.42,0.7-1.12,0.7c-0.7,0-1.4,0.14-2.24,0.28
		c-1.96,0.42-2.67,1.68-2.81,4.21c-0.14,2.38-0.14,4.49-0.14,15.85v13.19c0,7.29,0,13.19,0.28,16.27c0.28,1.96,0.7,3.37,2.95,3.65
		c0.98,0.14,2.67,0.28,3.79,0.28c0.84,0,1.26,0.28,1.26,0.56c0,0.56-0.56,0.7-1.4,0.7c-4.91,0-9.68-0.28-11.64-0.28
		c-1.68,0-6.45,0.28-9.4,0.28c-0.98,0-1.54-0.28-1.54-0.7s0.28-0.56,1.26-0.56c1.12,0,1.96-0.14,2.67-0.28
		c1.54-0.28,1.96-1.54,2.1-3.79c0.42-3.09,0.42-8.98,0.42-16.27V245.18"/>
	<path id="XMLID_19_" class="st0" d="M462.06,245.18c0-11.36,0-13.47-0.14-15.85c-0.14-2.52-0.84-3.79-2.52-4.21
		c-0.84-0.28-1.82-0.28-2.67-0.28c-0.7,0-1.26-0.14-1.26-0.7c0-0.42,0.56-0.56,1.82-0.56c2.81,0,7.57,0.28,9.68,0.28
		c1.82,0,6.31-0.28,9.12-0.28c0.98,0,1.54,0.14,1.54,0.56c0,0.56-0.42,0.7-1.26,0.7c-0.7,0-1.4,0.14-2.24,0.28
		c-1.96,0.42-2.67,1.68-2.81,4.21c-0.14,2.38-0.14,4.49-0.14,15.85v13.19c0,7.29,0,13.19,0.28,16.27c0.28,1.96,0.7,3.37,2.95,3.65
		c0.98,0.14,2.67,0.28,3.79,0.28c0.84,0,1.26,0.28,1.26,0.56c0,0.56-0.56,0.7-1.4,0.7c-4.91,0-9.68-0.28-11.64-0.28
		c-1.68,0-6.45,0.28-9.4,0.28c-0.98,0-1.54-0.28-1.54-0.7s0.28-0.56,1.12-0.56c1.12,0,1.96-0.14,2.67-0.28
		c1.54-0.28,1.96-1.54,2.1-3.79c0.42-3.09,0.42-8.98,0.42-16.27L462.06,245.18"/>
	<path id="XMLID_20_" class="st0" d="M492.08,245.18c0-11.36,0-13.47-0.14-15.85c-0.14-2.52-0.84-3.79-2.52-4.21
		c-0.84-0.28-1.82-0.28-2.67-0.28c-0.7,0-1.26-0.14-1.26-0.7c0-0.42,0.56-0.56,1.82-0.56c2.81,0,7.57,0.28,9.68,0.28
		c1.82,0,6.31-0.28,9.12-0.28c0.98,0,1.54,0.14,1.54,0.56c0,0.56-0.42,0.7-1.26,0.7s-1.4,0.14-2.24,0.28
		c-1.96,0.42-2.67,1.68-2.81,4.21c-0.14,2.38-0.14,4.49-0.14,15.85v13.19c0,7.29,0,13.19,0.28,16.27c0.28,1.96,0.7,3.37,2.95,3.65
		c0.98,0.14,2.67,0.28,3.79,0.28c0.84,0,1.26,0.28,1.26,0.56c0,0.56-0.56,0.7-1.4,0.7c-4.91,0-9.68-0.28-11.64-0.28
		c-1.68,0-6.45,0.28-9.4,0.28c-0.98,0-1.54-0.28-1.54-0.7s0.28-0.56,1.26-0.56c1.12,0,1.96-0.14,2.67-0.28
		c1.54-0.28,1.96-1.54,2.1-3.79c0.42-3.09,0.42-8.98,0.42-16.27L492.08,245.18"/>
	<rect id="XMLID_21_" x="270.17" y="200.72" class="st0" width="238.47" height="2.95"/>
	<rect id="XMLID_22_" x="4.21" y="301.15" class="st0" width="504.85" height="2.95"/>
	<path id="XMLID_23_" class="st0" d="M65.09,176.73H27.63c-0.98,0-2.52,0.7-3.65,1.26c-3.51,1.82-4.91,6.17-2.95,9.68
		c0.84,1.54,2.38,2.81,3.65,4.21c0.14,0.14,0.42,0.42,0.28,0.7c-0.14,0.14-0.14,0.14-0.28,0.14c-1.68,0-20.48,0-20.62,0
		c-0.14,0-0.28,0.14-0.28,0.28s0,8,0,8.28c0,0.14,0,0.14,0.28,0.14h17.39c6.45,0,13.75,1.12,15.57-5.33
		c0.56-1.82,0.42-3.93-0.42-5.61c-0.56-1.12-1.26-1.96-2.1-2.95c-0.84-0.84-1.82-1.68-2.67-2.67c0,0-0.14-0.14,0.14-0.14
		s1.12,0,1.26,0c3.65,0,7.01,0,10.66,0c0,0,0.28,0,0.28,0.28c0,0.42,0,1.26,0,1.54v14.73l0.14,0.14h9.26l0.14-0.14v-16.13
		c0-0.14,0-0.28,0.14-0.28h11.22l0.14-0.14v-8C65.23,176.73,65.09,176.73,65.09,176.73"/>
	<path id="XMLID_26_" class="st0" d="M118.53,200.57h11.36c0.14,0,0.28,0,0.28-0.28c0-0.28,0-8.14,0-8.28c0-0.14,0-0.14-0.14-0.14
		h-8.28h-2.95c-1.68,0-2.52,0-3.09-0.56v-0.28c0.42-0.28,1.12-0.7,1.68-1.12c1.82-1.26,2.95-3.09,3.09-5.19
		c0.28-4.21-2.52-8.14-6.73-8.7c-2.52-0.42-5.75-0.28-8.7-0.28H93.42l-0.14,0.28v24.41c0,0.14,0,0.14,0.14,0.14
		c3.51,0,10.1,0,10.1,0l0.14-0.14v-6.73h0.14v0.14l0.14,0.14c0.84,0.84,1.68,1.68,2.52,2.38c1.68,1.54,3.23,3.23,5.33,3.93
		C113.76,200.86,116.29,200.57,118.53,200.57L118.53,200.57z M107.73,186.55c-1.12,0-2.1,0-3.37,0c-0.14,0-0.28-0.14-0.28-0.28
		c0-0.28,0-2.24,0-2.52c0-0.28,0-0.42,0.14-0.42h4.21c0.98,0,1.26,0.14,1.68,0.28c0.56,0.28,0.84,0.7,0.84,1.26
		C111.38,186.83,109.41,186.55,107.73,186.55"/>
	<path id="XMLID_29_" class="st0" d="M91.88,200.57L91.88,200.57c-0.7-2.1-1.26-4.07-1.96-6.03c-1.54-4.63-6.03-17.96-6.17-18.38
		c0-0.14-0.14-0.14-0.42-0.14H69.44l-0.42,0.14c-0.14,0.14-1.4,3.93-1.82,5.33c-1.26,4.07-2.67,8.28-3.93,12.34
		c-0.42,1.4-1.82,5.75-2.1,6.73v0.14h8.28c0.7,0,0.98,0,1.26-0.28c0.7-0.84,0.84-2.81,1.26-3.23l0.7-0.14c0.14,0,7.15,0,7.43,0
		c0.28,0,0.7,0,0.7,0.14c0.42,0.42,0.7,2.24,1.12,3.09c0.28,0.28,0.7,0.28,0.98,0.28h8.28C91.6,200.57,91.88,200.57,91.88,200.57
		L91.88,200.57z M78.69,190.19h-3.93c-0.28,0-0.28,0-0.28-0.14l0.28-0.7c0.7-1.96,1.26-3.79,1.96-5.75v-0.14l0.14,0.14
		C77.15,184.86,78.69,189.49,78.69,190.19L78.69,190.19"/>
	<path id="XMLID_30_" class="st0" d="M171.56,199.03c0.42-1.12,5.47-17.11,7.57-23.29c0-0.28,0-0.28-0.14-0.28h-9.68
		c-0.14,0-0.14,0-0.14,0.14c-0.28,0.56-1.26,3.93-1.54,4.91c-0.14,0.42-0.28,0.84-0.42,1.26l-0.14,0.14l-0.14-0.14
		c-0.14-0.42-1.82-5.61-1.96-6.03c-0.14-0.28-0.28-0.42-0.56-0.42h-9.96c-0.42,0-0.42,0-0.42,0.14c-0.14,0.56-1.68,5.33-1.96,6.03
		l-0.14,0.28c0,0-0.14-0.14-0.14-0.28c-0.28-0.84-1.54-5.19-1.82-6.03c0-0.14-0.14-0.14-0.42-0.14c-1.96,0-9.12,0-10.24,0
		c-0.14,0-0.14,0.14-0.14,0.14c0.14,0.28,0.7,2.24,0.98,3.23c0.84,2.38,5.47,16.41,7.01,21.04c0,0.14,0.42,0.14,0.56,0.14h8
		c0.42,0,0.42-0.14,0.56-0.56c0.14-0.56,2.1-5.89,2.38-6.87c0.14-0.56,0.28-0.98,0.56-1.54l0.14-0.14l0.14,0.14
		c0.14,0.56,2.81,8.7,2.95,8.84c0,0,0,0.14,0.42,0.14h8.28C171.41,200.01,171.41,199.59,171.56,199.03"/>
	<path id="XMLID_33_" class="st0" d="M253.9,200.57c0.7-0.14,1.4-0.42,2.1-0.84c2.24-1.4,3.79-4.63,3.09-7.29
		c-0.84-3.23-1.96-4.77-5.33-7.57c-0.56-0.42-0.14-0.42,0-0.42c0.28,0,10.38,0,11.5,0c0.42,0,0.42,0,0.42-0.42c0-0.42,0-7.15,0-7.57
		c0-0.14-0.14-0.14-0.14-0.14H264h-10.24c-1.26,0-2.95,0-4.21,0c-6.59,0-9.96,5.75-7.01,11.08c0.56,1.12,1.68,1.96,2.67,2.81
		c0.42,0.42,0.84,0.84,1.26,1.26c0.28,0.28,0.56,0.56,0,0.56H234.4c-1.4,0-1.96-0.14-2.24-0.42l-0.14-0.14
		c0.56-0.42,1.12-0.84,1.54-1.4c2.95-3.37,3.09-8.84-0.84-11.78c-1.26-0.98-2.52-1.68-4.07-1.96c-1.26-0.28-2.67-0.28-4.91-0.28
		c-4.63,0-14.17,0.14-14.59,0.14c-0.28,0-0.42,0-0.42,0.28c0,2.24,0,21.46,0,23.99c0,0.14,0,0.14,0.14,0.14h10.24
		c0.14,0,0.14-0.14,0.14-0.28v-7.01h0.14l0.14,0.14c2.24,1.68,3.65,3.93,5.89,5.47c0.98,0.7,1.96,1.12,3.09,1.4
		c1.54,0.42,3.37,0.28,5.05,0.28h6.87c3.09,0,7.01,0,10.1,0C252.35,201.14,253.19,200.86,253.9,200.57L253.9,200.57z M218.97,183.04
		c0.7,0,3.09,0,3.51,0c1.12,0,2.1,0,2.52,0.14c0.56,0.28,0.84,0.7,0.84,1.26c0.14,1.96-1.96,1.68-3.51,1.68h-3.37
		c-0.14,0-0.14,0-0.14-0.28c0-0.42,0-1.54,0-2.52C218.83,183.04,218.83,183.04,218.97,183.04"/>
	<path id="XMLID_36_" class="st0" d="M206.34,200.57c-0.56-1.96-1.26-3.93-1.82-5.75c-1.54-4.63-6.03-17.81-6.17-18.38
		c0-0.14-0.14-0.14-0.42-0.14h-13.89l-0.42,0.14c0,0.14-1.4,3.93-1.82,5.33c-1.26,4.07-2.67,8.28-3.93,12.34
		c-0.42,1.4-1.82,5.75-2.1,6.73V201h8.28c0.7,0,1.12,0,1.26-0.28c0.7-0.84,0.84-2.81,1.26-3.23l0.7-0.14c0.14,0,7.15,0,7.43,0
		s0.7,0,0.7,0.14c0.42,0.42,0.7,2.1,1.12,3.09c0.28,0.28,0.7,0.28,0.84,0.28h8.56C206.34,200.86,206.34,200.86,206.34,200.57
		L206.34,200.57z M193.3,190.62h-3.93c-0.28,0-0.28,0-0.28-0.14l0.28-0.7c0.7-1.96,1.26-3.79,1.96-5.75v-0.14v0.14
		C191.75,185.14,193.3,189.77,193.3,190.62L193.3,190.62"/>
	<path id="XMLID_39_" class="st0" d="M3.23,331.17c0,2.1-0.14,3.93-0.7,6.31h4.91c-0.7-2.67-0.7-3.37-0.7-5.33v-6.03
		c5.05,6.73,6.59,8.42,9.82,11.36h3.37c-2.95-3.51-5.89-7.15-8.14-10.94c1.12-0.56,4.63-2.52,4.63-6.59c0-3.23-2.95-7.01-9.26-7.01
		H2.38c0.28,0.84,0.7,2.24,0.7,5.05L3.23,331.17L3.23,331.17z M6.87,315.18c4.91,0.56,6.03,3.37,6.03,5.19
		c0,3.79-3.79,4.77-6.03,5.47V315.18"/>
	<path id="XMLID_40_" class="st0" d="M31,312.09c0.7,2.1,0.98,4.49,0.98,6.17v11.92c0,3.09-0.42,4.91-0.98,6.31h12.76l1.82-4.07
		c-5.19,1.82-6.87,1.82-10.1,1.82v-8.98c1.82,0.14,2.81,0.28,5.61,1.12l2.1-3.37h-7.72v-8.56c2.52-0.14,4.07,0.28,6.73,1.4
		l1.96-3.79H31"/>
	<path id="XMLID_41_" class="st0" d="M54.71,312.09c0.7,0.84,0.98,1.26,1.82,2.81c0.7,1.54,1.54,3.51,1.82,4.21l6.87,17.67h2.81
		l8-19.08c0.84-1.96,1.82-3.93,3.23-5.47l-6.31-0.14c0.28,0.84,0.28,1.26,0.28,1.54c0,1.4-0.7,3.23-1.12,4.49l-5.19,12.48
		l-5.05-12.91c-0.56-1.4-0.98-3.37-0.98-4.35c0-0.28,0-0.56,0.28-1.26H54.71"/>
	<path id="XMLID_42_" class="st0" d="M89.64,312.09c0.7,2.1,0.98,4.49,0.98,6.17v11.92c0,3.09-0.42,4.91-0.98,6.31h12.76l1.82-4.07
		c-5.19,1.82-6.87,1.82-10.1,1.82v-8.98c1.82,0.14,2.81,0.28,5.61,1.12l2.1-3.37h-7.72v-8.56c2.52-0.14,4.07,0.28,6.73,1.4
		l1.82-3.79L89.64,312.09"/>
	<path id="XMLID_43_" class="st0" d="M113.62,312.09c1.4,1.12,2.1,1.82,3.23,3.37v14.73c0,0.42,0,3.93-0.84,6.45h5.19
		c-0.7-1.96-0.98-5.05-0.98-7.15v-9.68l10.38,13.33c0.84,1.12,1.68,2.24,2.1,3.51h4.49c-0.42-0.98-0.84-2.38-0.84-6.03v-13.19
		c0-2.67,0.28-3.93,0.56-5.19h-4.63c0.42,1.4,0.7,2.52,0.7,7.01v11.08L121.9,316.3c-1.96-2.38-2.1-3.09-2.67-4.21H113.62"/>
	<path id="XMLID_44_" class="st0" d="M169.03,313.64c-1.54-0.42-3.37-0.84-6.31-0.84c-5.19,0-8.28,1.26-10.94,4.35
		c-1.96,2.38-3.09,5.61-3.09,8.7c0,4.63,2.52,11.92,13.47,11.92c4.49,0,6.87-0.98,8.56-1.54c-0.42-1.68-0.42-2.1-0.42-3.79v-2.95
		c0-2.38,0.42-3.51,0.7-4.21h-6.03c0.98,1.26,1.68,2.24,1.68,6.03v2.67c-1.12,0.42-2.1,0.84-4.35,0.84c-6.31,0-9.96-4.35-9.96-9.68
		c0-6.59,4.63-9.54,8.84-9.54c3.51,0,6.17,1.4,7.72,2.24L169.03,313.64"/>
	<path id="XMLID_45_" class="st0" d="M182.92,312.09c0.7,2.1,0.98,4.49,0.98,6.17v11.92c0,3.09-0.42,4.91-0.98,6.31h12.76l1.82-4.07
		c-5.19,1.82-6.87,1.82-10.1,1.82v-8.98c1.82,0.14,2.81,0.28,5.61,1.12l2.1-3.37h-7.72v-8.56c2.52-0.14,4.07,0.28,6.73,1.4
		l1.82-3.79L182.92,312.09"/>
	<path id="XMLID_46_" class="st0" d="M305.24,312.09l-1.26,4.07c4.77-1.68,6.17-1.68,7.86-1.68v15.85c0,2.95-0.28,4.77-0.7,6.17
		h5.05c-0.56-1.96-0.7-3.93-0.7-5.89v-16.13c2.81,0,3.79,0.28,6.45,1.26l1.68-3.79L305.24,312.09"/>
	<path id="XMLID_47_" class="st0" d="M334.13,312.09c0.42,1.12,0.98,2.81,0.98,6.31v11.92c0,3.65-0.56,5.19-0.98,6.31h5.61
		c-0.42-1.4-0.98-2.95-0.98-6.87v-4.07h10.52v4.35c0,3.93-0.42,5.05-0.98,6.59h5.61c-0.56-1.4-0.98-2.67-0.98-6.73v-11.36
		c0-3.79,0.42-4.91,0.98-6.59h-5.61c0.42,1.26,0.98,2.81,0.98,6.17v4.35h-10.52v-4.77c0-3.09,0.56-4.49,0.98-5.61H334.13"/>
	<path id="XMLID_48_" class="st0" d="M366.12,312.09c0.7,2.1,0.84,4.49,0.84,6.17v11.92c0,3.09-0.42,4.91-0.84,6.31h12.76l1.82-4.07
		c-5.19,1.82-6.87,1.82-10.1,1.82v-8.98c1.82,0.14,2.81,0.28,5.61,1.12l2.1-3.37h-7.72v-8.56c2.52-0.14,4.07,0.28,6.73,1.4
		l1.82-3.79L366.12,312.09"/>
	<path id="XMLID_49_" class="st0" d="M422.36,313.64c-1.12-0.42-2.81-1.12-4.91-1.12c-4.07,0-7.29,3.23-7.29,7.01
		s2.1,5.05,7.29,8.28c0.7,0.42,2.1,1.54,2.1,3.23c0,1.68-1.54,3.37-3.65,3.37c-2.24,0-3.65-1.68-4.77-2.95v5.19
		c1.12,0.28,2.24,0.7,4.21,0.7c5.19,0,8.28-2.95,8.28-7.01c0-2.38-0.98-4.21-4.49-6.31c-3.09-1.82-5.19-2.95-5.19-5.33
		c0-1.96,1.68-3.37,3.79-3.37c2.24,0,3.51,1.12,4.63,1.96L422.36,313.64"/>
	<path id="XMLID_50_" class="st0" d="M434.57,312.09c0.56,1.54,0.98,3.09,0.98,5.75v11.64c0,4.07-0.42,5.47-0.98,7.01h5.47
		c-0.7-2.52-0.84-3.93-0.84-6.73v-11.22c0-3.65,0.42-5.05,0.84-6.45H434.57"/>
	<path id="XMLID_51_" class="st0" d="M452.52,312.09l-1.26,4.07c4.77-1.68,6.17-1.68,7.86-1.68v15.85c0,2.95-0.28,4.77-0.7,6.17
		h5.05c-0.56-1.96-0.7-3.93-0.7-5.89v-16.13c2.81,0,3.79,0.28,6.45,1.26l1.68-3.79L452.52,312.09"/>
	<path id="XMLID_52_" class="st0" d="M481.56,312.09c0.42,1.12,0.98,2.81,0.98,6.31v11.92c0,3.65-0.56,5.19-0.98,6.31h5.61
		c-0.42-1.4-0.98-2.95-0.98-6.87v-4.07h10.52v4.35c0,3.93-0.42,5.05-0.98,6.59h5.61c-0.56-1.4-0.98-2.67-0.98-6.73v-11.36
		c0-3.79,0.42-4.91,0.98-6.59h-5.61c0.42,1.26,0.98,2.81,0.98,6.17v4.35h-10.52v-4.77c0-3.09,0.56-4.49,0.98-5.61H481.56"/>
	<polyline id="XMLID_53_" class="st0" points="507.09,337.62 506.25,337.62 506.25,334.68 505.27,334.68 505.27,333.98 
		508.07,333.98 508.07,334.68 507.09,334.68 507.09,337.62 	"/>
	<polyline id="XMLID_54_" class="st0" points="512,337.62 511.3,337.62 511.3,334.54 511.3,334.54 510.6,337.62 509.9,337.62 
		509.19,334.54 509.19,334.54 509.19,337.62 508.49,337.62 508.49,333.98 509.62,333.98 510.32,336.78 510.32,336.78 510.88,333.98 
		512,333.98 512,337.62 	"/>
	<path id="XMLID_55_" d="M481.14,312.09c0.42,1.12,0.98,2.81,0.98,6.31v11.92c0,3.65-0.56,5.19-0.98,6.31h5.61
		c-0.42-1.4-0.98-2.95-0.98-6.87v-4.07h10.52v4.35c0,3.93-0.42,5.05-0.98,6.59h5.61c-0.56-1.4-0.98-2.67-0.98-6.73v-11.36
		c0-3.79,0.42-4.91,0.98-6.59h-5.61c0.42,1.26,0.98,2.81,0.98,6.17v4.35h-10.52v-4.77c0-3.09,0.56-4.49,0.98-5.61H481.14"/>
	<path id="XMLID_56_" d="M7.57,243.64c0-11.36,0-13.47-0.14-15.85c-0.14-2.52-0.7-3.79-3.23-4.21c-0.56-0.14-1.82-0.28-2.95-0.28
		c-0.84,0-1.26-0.14-1.26-0.7c0-0.56,0.56-0.7,1.68-0.7c3.93,0,8.7,0.28,10.8,0.28c2.38,0,17.25,0,18.66-0.14
		c1.4-0.14,2.67-0.28,3.23-0.42c0.42-0.14,0.84-0.28,1.26-0.28c0.42,0,0.42,0.28,0.42,0.7c0,0.56-0.42,1.4-0.56,4.91
		c-0.14,0.7-0.28,4.07-0.42,4.91c-0.14,0.42-0.28,0.84-0.7,0.84c-0.56,0-0.7-0.42-0.7-0.98c0-0.56-0.14-1.82-0.42-2.67
		c-0.56-1.4-1.26-2.24-5.05-2.67c-1.26-0.14-9.12-0.28-10.52-0.28c-0.42,0-0.56,0.28-0.56,0.7v18.94c0,0.56,0.14,0.84,0.56,0.84
		c1.68,0,10.24,0,11.92-0.14c1.82-0.14,2.95-0.42,3.65-1.12c0.56-0.56,0.84-0.98,1.12-0.98c0.28,0,0.56,0.14,0.56,0.56
		c0,0.42-0.42,1.68-0.56,5.47c-0.14,1.54-0.28,4.49-0.28,5.05c0,0.56,0,1.4-0.7,1.4c-0.56,0-0.7-0.28-0.7-0.7
		c-0.14-0.7-0.14-1.68-0.28-2.67c-0.42-1.54-1.4-2.67-4.21-2.95c-1.4-0.14-8.84-0.28-10.52-0.28c-0.42,0-0.42,0.28-0.42,0.7v5.89
		c0,2.52-0.14,9.4,0,11.5c0.14,5.19,1.4,6.31,8.98,6.31c1.96,0,5.05,0,7.01-0.84c1.96-0.84,2.81-2.52,3.37-5.47
		c0.14-0.84,0.28-1.12,0.84-1.12c0.56,0,0.56,0.56,0.56,1.4c0,1.68-0.56,6.73-0.98,8.28c-0.56,1.96-1.26,1.96-4.07,1.96
		c-11.22,0-16.27-0.42-20.62-0.42c-1.68,0-6.45,0.28-9.4,0.28c-0.98,0-1.54-0.28-1.54-0.7s0.28-0.56,1.12-0.56
		c1.12,0,1.96-0.14,2.67-0.28c1.54-0.28,1.82-1.96,2.1-4.07c0.42-3.09,0.42-8.98,0.42-15.85L7.57,243.64"/>
	<path id="XMLID_57_" d="M62.28,243.64c0-11.36,0-13.47-0.14-15.85c-0.14-2.52-0.7-3.79-3.23-4.21c-0.56-0.14-1.82-0.28-2.95-0.28
		c-0.84,0-1.26-0.14-1.26-0.7c0-0.56,0.56-0.7,1.68-0.7c3.93,0,8.7,0.28,10.8,0.28c3.09,0,7.43-0.28,10.8-0.28
		c9.26,0,12.62,3.09,13.89,4.21c1.68,1.54,3.79,4.91,3.79,8.84c0,10.52-7.72,18.1-18.38,18.1c-0.42,0-1.12,0-1.54-0.14
		c-0.42-0.14-0.84-0.14-0.84-0.7c0-0.56,0.56-0.84,2.1-0.84c4.21,0,9.96-4.63,9.96-12.34c0-2.52-0.28-7.43-4.35-11.22
		c-2.67-2.52-5.75-2.95-7.43-2.95c-1.12,0-2.24,0.14-2.95,0.28c-0.42,0.14-0.56,0.56-0.56,1.4v29.88c0,6.87,0,12.76,0.42,15.99
		c0.28,2.1,0.7,3.79,2.95,4.07c0.98,0.14,2.67,0.28,3.79,0.28c0.84,0,1.26,0.28,1.26,0.56c0,0.56-0.56,0.7-1.4,0.7
		c-4.91,0-9.68-0.28-11.5-0.28c-1.68,0-6.45,0.28-9.4,0.28c-0.98,0-1.54-0.28-1.54-0.7s0.28-0.56,1.26-0.56
		c1.12,0,1.96-0.14,2.67-0.28c1.54-0.28,1.82-1.96,2.1-4.07c0.42-3.09,0.42-8.98,0.42-15.85L62.28,243.64"/>
	<path id="XMLID_58_" d="M117.83,243.64c0-11.36,0-13.47-0.14-15.85c-0.14-2.52-0.84-3.79-2.52-4.21c-0.84-0.28-1.82-0.28-2.67-0.28
		c-0.7,0-1.26-0.14-1.26-0.7c0-0.42,0.56-0.56,1.82-0.56c2.81,0,7.57,0.28,9.68,0.28c1.82,0,6.31-0.28,9.12-0.28
		c0.98,0,1.54,0.14,1.54,0.56c0,0.56-0.42,0.7-1.26,0.7c-0.7,0-1.4,0.14-2.24,0.28c-1.96,0.42-2.67,1.68-2.81,4.21
		c-0.14,2.38-0.14,4.49-0.14,15.85v13.19c0,7.29,0,13.19,0.28,16.27c0.28,1.96,0.7,3.37,2.95,3.65c0.98,0.14,2.67,0.28,3.79,0.28
		c0.84,0,1.26,0.28,1.26,0.56c0,0.56-0.56,0.7-1.4,0.7c-4.91,0-9.68-0.28-11.64-0.28c-1.68,0-6.45,0.28-9.4,0.28
		c-0.98,0-1.54-0.28-1.54-0.7s0.28-0.56,1.26-0.56c1.12,0,1.96-0.14,2.67-0.28c1.54-0.28,1.96-1.54,2.1-3.79
		c0.42-3.09,0.42-8.98,0.42-16.27v-13.05"/>
	<path id="XMLID_59_" d="M154.86,277.02c-1.12-0.56-1.4-0.84-1.4-2.52c0-4.07,0.28-8.56,0.42-9.82c0.14-1.12,0.28-1.96,0.84-1.96
		c0.7,0,0.7,0.7,0.7,1.26c0,0.98,0.28,2.52,0.7,3.79c1.68,5.47,6.03,7.57,10.66,7.57c6.73,0,9.96-4.49,9.96-8.56
		c0-3.65-1.12-7.15-7.29-11.92l-3.37-2.67c-8.14-6.45-11.08-11.64-11.08-17.67c0-8.14,6.87-14.03,17.25-14.03
		c4.91,0,8,0.7,9.96,1.26c0.7,0.14,0.98,0.42,0.98,0.84c0,0.98-0.28,3.09-0.28,8.98c0,1.68-0.28,2.24-0.84,2.24
		c-0.56,0-0.7-0.42-0.7-1.4c0-0.7-0.42-2.95-1.96-4.91c-1.12-1.4-3.23-3.65-8.14-3.65c-5.47,0-8.84,3.23-8.84,7.72
		c0,3.37,1.68,6.03,7.86,10.8l2.1,1.54c8.98,6.87,12.2,11.92,12.2,19.08c0,4.35-1.68,9.54-7.01,12.91
		c-3.79,2.38-7.86,3.09-11.92,3.09C161.46,278.99,158.09,278.43,154.86,277.02"/>
	<path id="XMLID_62_" d="M234.96,275.48c-14.31,0-22.86-12.34-22.86-27.77c0-18.52,9.82-23.29,18.38-23.29
		c12.2,0,21.88,10.38,21.88,27.07C252.21,272.96,240.15,275.48,234.96,275.48L234.96,275.48z M231.87,279.13
		c18.94,0,30.86-13.47,30.86-30.58s-11.5-27.91-30.16-27.91c-22.3,0-30.86,16.55-30.86,29.18
		C201.71,263.14,210.41,279.13,231.87,279.13"/>
	<path id="XMLID_65_" d="M295.98,241.96c0-5.89,0-12.34,0.14-14.87c0-0.84,0.28-1.26,0.84-1.54c0.56-0.28,3.37-0.56,4.91-0.56
		c5.75,0,14.31,0.84,21.18,7.43c3.23,3.09,7.15,9.12,7.15,18.66c0,7.72-1.54,14.45-6.31,18.52c-4.49,3.93-9.54,5.33-17.11,5.33
		c-5.89,0-8.84-1.54-9.82-2.95c-0.56-0.84-0.7-3.79-0.84-5.61c-0.14-1.4-0.14-7.15-0.14-15.01V241.96L295.98,241.96z M286.58,256.26
		c0,6.87,0,12.76-0.42,15.85c-0.28,2.1-0.7,3.79-2.1,4.07c-0.7,0.14-1.54,0.28-2.67,0.28c-0.84,0-1.12,0.28-1.12,0.56
		c0,0.56,0.56,0.7,1.54,0.7c2.95,0,7.72-0.28,9.4-0.28c3.79,0,10.38,0.84,15.85,0.84c13.75,0,21.6-5.33,24.97-8.84
		c4.21-4.21,8.14-11.36,8.14-20.76c0-8.84-3.51-15.01-7.29-18.94c-8.14-8.56-20.62-8.56-29.88-8.56c-4.49,0-9.12,0.28-11.5,0.28
		c-2.1,0-6.73-0.28-10.8-0.28c-1.12,0-1.68,0.14-1.68,0.7c0,0.56,0.42,0.7,1.26,0.7c0.98,0,2.24,0.14,2.95,0.28
		c2.52,0.56,3.09,1.68,3.23,4.21c0.14,2.38,0.14,4.49,0.14,15.85L286.58,256.26"/>
	<path id="XMLID_66_" d="M361.21,243.64c0-11.36,0-13.47-0.14-15.85c-0.14-2.52-0.7-3.79-3.23-4.21c-0.56-0.14-1.82-0.28-2.95-0.28
		c-0.84,0-1.26-0.14-1.26-0.7c0-0.56,0.56-0.7,1.68-0.7c3.93,0,8.7,0.28,10.8,0.28c2.38,0,17.25,0,18.66-0.14
		c1.4-0.14,2.67-0.28,3.23-0.42c0.42-0.14,0.84-0.28,1.26-0.28s0.42,0.28,0.42,0.7c0,0.56-0.42,1.4-0.56,4.91
		c-0.14,0.7-0.28,4.07-0.42,4.91c-0.14,0.42-0.28,0.84-0.7,0.84c-0.56,0-0.7-0.42-0.7-0.98c0-0.56-0.14-1.82-0.42-2.67
		c-0.56-1.4-1.26-2.24-5.05-2.67c-1.26-0.14-9.12-0.28-10.52-0.28c-0.42,0-0.56,0.28-0.56,0.7v18.94c0,0.56,0.14,0.84,0.56,0.84
		c1.68,0,10.24,0,11.92-0.14c1.82-0.14,2.95-0.42,3.65-1.12c0.56-0.56,0.84-0.98,1.12-0.98c0.28,0,0.56,0.14,0.56,0.56
		c0,0.42-0.42,1.68-0.56,5.47c-0.14,1.54-0.28,4.49-0.28,5.05c0,0.56,0,1.4-0.7,1.4c-0.56,0-0.7-0.28-0.7-0.7
		c-0.14-0.7-0.14-1.68-0.28-2.67c-0.42-1.54-1.4-2.67-4.21-2.95c-1.4-0.14-8.84-0.28-10.52-0.28c-0.42,0-0.42,0.28-0.42,0.7v5.89
		c0,2.52-0.14,9.4,0,11.5c0.14,5.19,1.4,6.31,8.98,6.31c1.96,0,5.05,0,7.01-0.84c1.96-0.84,2.81-2.52,3.37-5.47
		c0.14-0.84,0.28-1.12,0.84-1.12c0.56,0,0.56,0.56,0.56,1.4c0,1.68-0.56,6.73-0.98,8.28c-0.56,1.96-1.26,1.96-4.07,1.96
		c-11.22,0-16.27-0.42-20.62-0.42c-1.68,0-6.45,0.28-9.4,0.28c-0.98,0-1.54-0.28-1.54-0.7s0.28-0.56,1.26-0.56
		c1.12,0,1.96-0.14,2.67-0.28c1.54-0.28,1.82-1.96,2.1-4.07c0.42-3.09,0.42-8.98,0.42-15.85L361.21,243.64"/>
	<path id="XMLID_67_" d="M431.34,243.64c0-11.36,0-13.47-0.14-15.85c-0.14-2.52-0.84-3.79-2.52-4.21c-0.84-0.28-1.82-0.28-2.67-0.28
		c-0.7,0-1.26-0.14-1.26-0.7c0-0.42,0.56-0.56,1.82-0.56c2.81,0,7.57,0.28,9.68,0.28c1.82,0,6.31-0.28,9.12-0.28
		c0.98,0,1.54,0.14,1.54,0.56c0,0.56-0.42,0.7-1.26,0.7c-0.7,0-1.4,0.14-2.24,0.28c-1.96,0.42-2.67,1.68-2.81,4.21
		c-0.14,2.38-0.14,4.49-0.14,15.85v13.19c0,7.29,0,13.19,0.28,16.27c0.28,1.96,0.7,3.37,2.95,3.65c0.98,0.14,2.67,0.28,3.79,0.28
		c0.84,0,1.26,0.28,1.26,0.56c0,0.56-0.56,0.7-1.4,0.7c-4.91,0-9.68-0.28-11.64-0.28c-1.68,0-6.45,0.28-9.4,0.28
		c-0.98,0-1.54-0.28-1.54-0.7s0.28-0.56,1.12-0.56c1.12,0,1.96-0.14,2.67-0.28c1.54-0.28,1.96-1.54,2.1-3.79
		c0.42-3.09,0.42-8.98,0.42-16.27L431.34,243.64"/>
	<path id="XMLID_68_" d="M460.66,243.64c0-11.36,0-13.47-0.14-15.85c-0.14-2.52-0.84-3.79-2.52-4.21c-0.84-0.28-1.82-0.28-2.67-0.28
		c-0.7,0-1.26-0.14-1.26-0.7c0-0.42,0.56-0.56,1.82-0.56c2.81,0,7.57,0.28,9.68,0.28c1.82,0,6.31-0.28,9.12-0.28
		c0.98,0,1.54,0.14,1.54,0.56c0,0.56-0.42,0.7-1.26,0.7s-1.4,0.14-2.24,0.28c-1.96,0.42-2.67,1.68-2.81,4.21
		c-0.14,2.38-0.14,4.49-0.14,15.85v13.19c0,7.29,0,13.19,0.28,16.27c0.28,1.96,0.7,3.37,2.95,3.65c0.98,0.14,2.67,0.28,3.79,0.28
		c0.84,0,1.26,0.28,1.26,0.56c0,0.56-0.56,0.7-1.4,0.7c-4.91,0-9.68-0.28-11.64-0.28c-1.68,0-6.45,0.28-9.4,0.28
		c-0.98,0-1.54-0.28-1.54-0.7s0.28-0.56,1.26-0.56c1.12,0,1.96-0.14,2.67-0.28c1.54-0.28,1.96-1.54,2.1-3.79
		c0.42-3.09,0.42-8.98,0.42-16.27L460.66,243.64"/>
	<path id="XMLID_69_" d="M490.82,243.64c0-11.36,0-13.47-0.14-15.85c-0.14-2.52-0.84-3.79-2.52-4.21c-0.84-0.28-1.82-0.28-2.67-0.28
		c-0.7,0-1.26-0.14-1.26-0.7c0-0.42,0.56-0.56,1.82-0.56c2.81,0,7.57,0.28,9.68,0.28c1.82,0,6.31-0.28,9.12-0.28
		c0.98,0,1.54,0.14,1.54,0.56c0,0.56-0.42,0.7-1.26,0.7c-0.7,0-1.4,0.14-2.24,0.28c-1.96,0.42-2.67,1.68-2.81,4.21
		c-0.14,2.38-0.14,4.49-0.14,15.85v13.19c0,7.29,0,13.19,0.28,16.27c0.28,1.96,0.7,3.37,2.95,3.65c0.98,0.14,2.67,0.28,3.79,0.28
		c0.84,0,1.12,0.28,1.12,0.56c0,0.56-0.56,0.7-1.4,0.7c-4.91,0-9.68-0.28-11.64-0.28c-1.68,0-6.45,0.28-9.4,0.28
		c-0.98,0-1.54-0.28-1.54-0.7s0.28-0.56,1.12-0.56c1.12,0,1.96-0.14,2.67-0.28c1.54-0.28,1.96-1.54,2.1-3.79
		c0.42-3.09,0.42-8.98,0.42-16.27L490.82,243.64"/>
	<rect id="XMLID_70_" x="269.05" y="199.17" width="238.47" height="2.95"/>
	<rect id="XMLID_71_" x="2.52" y="301.15" width="504.85" height="2.95"/>
	<polyline id="XMLID_72_" class="st1" points="261.33,200.57 260.63,200.57 260.63,197.91 259.65,197.91 259.65,197.35 
		262.31,197.35 262.31,197.91 261.33,197.91 261.33,200.57 	"/>
	<polyline id="XMLID_73_" class="st1" points="265.82,200.57 265.26,200.57 265.26,197.91 265.12,197.91 264.56,200.57 
		263.86,200.57 263.29,197.91 263.29,197.91 263.29,200.57 262.73,200.57 262.73,197.35 263.72,197.35 264.28,199.87 264.28,199.87 
		264.84,197.35 265.82,197.35 265.82,200.57 	"/>
	<path id="XMLID_74_" d="M63.12,175.19H25.67c-0.98,0-2.52,0.7-3.65,1.26c-3.51,1.82-4.91,6.17-2.95,9.68
		c0.84,1.54,2.38,2.81,3.65,4.21c0.14,0.14,0.42,0.42,0.28,0.7c-0.14,0.14-0.14,0.14-0.28,0.14c-1.68,0-20.48,0-20.62,0
		s-0.28,0.14-0.28,0.28c0,0.14,0,8,0,8.28c0,0.14,0,0.14,0.28,0.14H19.5c6.45,0,13.75,1.12,15.57-5.33
		c0.56-1.82,0.42-3.93-0.42-5.61c-0.56-1.12-1.26-1.96-2.1-2.95c-0.84-0.84-1.82-1.68-2.67-2.67c0,0-0.14-0.14,0.14-0.14
		c0.28,0,1.12,0,1.26,0c3.65,0,7.01,0,10.66,0c0,0,0.28,0,0.28,0.28c0,0.42,0,1.26,0,1.54v14.59l0.14,0.14h9.26l0.14-0.14v-16.13
		c0-0.14,0-0.28,0.14-0.28h11.22l0.14-0.14v-8C63.26,175.19,63.12,175.19,63.12,175.19"/>
	<path id="XMLID_77_" d="M116.57,199.03h11.36c0.14,0,0.28,0,0.28-0.28s0-8.14,0-8.28c0-0.14,0-0.14-0.14-0.14h-8.28h-2.95
		c-1.68,0-2.52,0-3.09-0.42v-0.28c0.42-0.28,1.12-0.7,1.68-1.12c1.82-1.26,2.95-3.09,3.09-5.19c0.28-4.21-2.52-8.14-6.73-8.7
		c-2.52-0.42-5.75-0.28-8.7-0.28H91.46l-0.14,0.14v24.41c0,0.14,0,0.14,0.14,0.14c3.51,0,10.1,0,10.1,0l0.14-0.14v-6.73h0.14v0.14
		l0.14,0.14c0.84,0.84,1.68,1.68,2.52,2.38c1.68,1.54,3.23,3.23,5.33,3.93C111.94,199.17,114.46,199.03,116.57,199.03L116.57,199.03
		z M105.91,185h-3.37c-0.14,0-0.28-0.14-0.28-0.28c0-0.28,0-2.24,0-2.52c0-0.28,0-0.42,0.14-0.42h4.21c0.98,0,1.26,0.14,1.68,0.28
		c0.56,0.28,0.84,0.7,0.84,1.26C109.55,185.14,107.45,185,105.91,185"/>
	<path id="XMLID_80_" d="M90.06,199.03L90.06,199.03c-0.56-2.1-1.26-4.07-1.96-6.03c-1.54-4.63-6.03-17.96-6.17-18.38
		c0-0.14-0.14-0.14-0.42-0.14H67.61l-0.42,0.14c-0.14,0.14-1.4,3.93-1.82,5.33c-1.26,4.07-2.67,8.28-3.93,12.34
		c-0.42,1.4-1.82,5.75-2.1,6.73v0.14h8.28c0.7,0,0.98,0,1.26-0.28c0.7-0.84,0.84-2.81,1.26-3.23l0.7-0.14c0.14,0,7.15,0,7.43,0
		c0.28,0,0.7,0,0.7,0.14c0.42,0.42,0.7,2.24,1.12,3.09c0.28,0.28,0.7,0.28,0.98,0.28h8.28C89.78,199.03,90.06,199.03,90.06,199.03
		L90.06,199.03z M76.73,188.65H72.8c-0.28,0-0.28,0-0.28-0.14l0.28-0.7c0.7-1.96,1.26-3.79,1.96-5.75v-0.14l0.14,0.14
		C75.19,183.18,76.73,187.81,76.73,188.65L76.73,188.65"/>
	<path id="XMLID_81_" d="M169.59,199.03c0.42-1.12,5.47-17.11,7.57-23.29c0-0.28,0-0.28-0.14-0.28h-9.68c-0.14,0-0.14,0-0.14,0.14
		c-0.14,0.56-1.26,3.93-1.54,4.91c-0.14,0.42-0.28,0.84-0.42,1.26l-0.14,0.14l-0.14-0.14c-0.14-0.42-1.82-5.61-1.96-6.03
		c-0.14-0.28-0.28-0.42-0.56-0.42h-9.96c-0.42,0-0.42,0-0.42,0.14c-0.14,0.56-1.68,5.33-1.96,6.03l-0.14,0.28
		c0,0-0.14-0.14-0.14-0.28c-0.28-0.84-1.54-5.19-1.82-6.03c0,0-0.14-0.14-0.42-0.14c-1.96,0-9.12,0-10.24,0
		c-0.14,0-0.14,0.14-0.14,0.14c0.14,0.28,0.7,2.24,0.98,3.23c0.84,2.38,5.47,16.41,7.01,21.04c0,0.14,0.42,0.14,0.56,0.14
		c1.96,0,7.43,0,8,0c0.42,0,0.42-0.14,0.56-0.56c0.14-0.56,2.1-5.89,2.38-6.87c0.14-0.56,0.28-0.98,0.56-1.54l0.14-0.14l0.14,0.14
		c0.14,0.56,2.81,8.7,2.95,8.84c0,0,0,0.14,0.42,0.14h8.28C169.45,200.01,169.45,199.59,169.59,199.03"/>
	<path id="XMLID_84_" d="M252.07,199.03c0.7-0.14,1.4-0.42,2.1-0.84c2.24-1.4,3.79-4.63,3.09-7.29c-0.84-3.23-1.96-4.77-5.33-7.57
		c-0.56-0.42-0.14-0.42,0-0.42c0.28,0,10.38,0,11.5,0c0.42,0,0.42,0,0.42-0.42s0-7.15,0-7.57c0-0.14-0.14-0.14-0.14-0.14h-1.54
		h-10.38c-1.26,0-2.95,0-4.21,0c-6.59,0-9.96,5.75-7.01,11.08c0.56,1.12,1.68,1.96,2.67,2.81c0.42,0.42,0.84,0.84,1.26,1.26
		c0.28,0.28,0.56,0.56,0,0.56h-12.06c-1.4,0-1.96-0.28-2.24-0.42l-0.14-0.14c0.56-0.42,1.12-0.84,1.54-1.4
		c2.95-3.37,3.09-8.84-0.84-11.78c-1.26-0.98-2.52-1.68-4.07-1.96c-1.26-0.28-2.67-0.28-4.91-0.28c-4.63,0-14.17,0.14-14.59,0.14
		c-0.28,0-0.42,0-0.42,0.28c0,2.24,0,21.46,0,23.99c0,0.14,0,0.14,0.14,0.14c2.1,0,9.68,0,10.24,0c0.14,0,0.14-0.14,0.14-0.42v-7.01
		h0.14l0.14,0.14c2.24,1.68,3.65,3.93,5.89,5.61c0.98,0.7,1.96,1.12,3.09,1.4c1.54,0.42,3.37,0.28,5.05,0.28h6.87h10.1
		C250.53,199.45,251.51,199.17,252.07,199.03L252.07,199.03z M217.28,181.36c0.7,0,3.09,0,3.51,0c1.12,0,2.1,0,2.52,0.14
		c0.56,0.28,0.84,0.7,0.84,1.26c0.14,1.96-1.96,1.68-3.51,1.68h-3.37c-0.14,0-0.14,0-0.14-0.28c0-0.42,0-1.54,0-2.52
		C217.14,181.5,217.14,181.36,217.28,181.36"/>
	<path id="XMLID_87_" d="M204.52,199.03c-0.56-1.96-1.26-3.93-1.82-5.75c-1.54-4.63-6.03-17.81-6.17-18.38
		c0-0.14-0.14-0.14-0.42-0.14h-13.89l-0.42,0.14c-0.14,0.14-1.4,3.93-1.82,5.33c-1.26,4.07-2.67,8.28-3.93,12.34
		c-0.42,1.4-1.82,5.75-2.1,6.73v0.14h8.28c0.7,0,1.12,0,1.26-0.28c0.7-0.84,0.84-2.81,1.26-3.23l0.7-0.14c0.14,0,7.15,0,7.43,0
		s0.7,0,0.7,0.14c0.42,0.42,0.7,2.1,1.12,3.09c0.28,0.28,0.7,0.28,0.84,0.28h8.56C204.66,199.31,204.66,199.31,204.52,199.03
		L204.52,199.03z M191.61,188.93h-3.93c-0.28,0-0.28,0-0.28-0.14l0.28-0.7c0.7-1.96,1.26-3.79,1.96-5.75l0.14-0.14v0.14
		C189.93,183.46,191.47,188.23,191.61,188.93L191.61,188.93"/>
	<polyline id="XMLID_88_" points="259.51,199.03 258.81,199.03 258.81,196.37 257.82,196.37 257.82,195.81 260.49,195.81 
		260.49,196.37 259.51,196.37 259.51,199.03 	"/>
	<polyline id="XMLID_89_" points="263.86,199.03 263.29,199.03 263.29,196.23 263.29,196.23 262.73,199.03 262.03,199.03 
		261.33,196.23 261.33,196.23 261.33,199.03 260.77,199.03 260.77,195.81 261.75,195.81 262.31,198.33 262.31,198.33 262.87,195.81 
		263.86,195.81 263.86,199.03 	"/>
	<polyline id="XMLID_90_" points="506.39,335.94 505.69,335.94 505.69,332.99 504.71,332.99 504.71,332.43 507.51,332.43 
		507.51,332.99 506.39,332.99 506.39,335.94 	"/>
	<polyline id="XMLID_91_" points="511.44,335.94 510.74,335.94 510.74,332.99 510.74,332.99 510.04,335.94 509.33,335.94 
		508.63,332.99 508.63,332.99 508.63,335.94 507.93,335.94 507.93,332.43 509.05,332.43 509.62,335.24 509.62,335.24 510.32,332.43 
		511.44,332.43 511.44,335.94 	"/>
	<path id="XMLID_94_" d="M2.81,329.63c0,2.1-0.14,3.93-0.7,6.31h4.91c-0.7-2.67-0.7-3.37-0.7-5.33v-6.03
		c5.05,6.73,6.59,8.42,9.82,11.36h3.37c-2.95-3.51-5.89-7.15-8.14-10.94c1.12-0.56,4.63-2.52,4.63-6.59c0-3.23-2.95-7.01-9.26-7.01
		H1.96c0.28,0.84,0.7,2.24,0.7,5.05L2.81,329.63L2.81,329.63z M6.31,313.5c4.91,0.42,6.03,3.37,6.03,5.19
		c0,3.79-3.79,4.77-6.03,5.47V313.5"/>
	<path id="XMLID_95_" d="M30.44,312.09c0.7,2.1,0.98,4.49,0.98,6.17v11.92c0,3.09-0.42,4.91-0.98,6.31H43.2l1.82-4.07
		c-5.19,1.82-6.87,1.82-10.1,1.82v-8.98c1.82,0.14,2.81,0.28,5.61,1.12l2.1-3.37h-7.72v-8.56c2.52-0.14,4.07,0.28,6.73,1.4
		l1.82-3.79L30.44,312.09"/>
	<path id="XMLID_96_" d="M54.01,312.09c0.7,0.84,0.98,1.26,1.82,2.81c0.7,1.54,1.54,3.51,1.82,4.21l6.87,17.67h2.81l8-19.08
		c0.84-1.96,1.82-3.93,3.23-5.47l-6.31-0.14c0.28,0.84,0.28,1.26,0.28,1.54c0,1.4-0.7,3.23-1.12,4.49l-5.19,12.48l-5.19-12.91
		c-0.56-1.4-0.98-3.37-0.98-4.35c0-0.28,0-0.56,0.28-1.26H54.01"/>
	<path id="XMLID_97_" d="M89.21,312.09c0.7,2.1,0.98,4.49,0.98,6.17v11.92c0,3.09-0.42,4.91-0.98,6.31h12.76l1.82-4.07
		c-5.19,1.82-6.87,1.82-10.1,1.82v-8.98c1.82,0.14,2.81,0.28,5.61,1.12l2.1-3.37H93.7v-8.56c2.52-0.14,4.07,0.28,6.73,1.4l1.82-3.79
		L89.21,312.09"/>
	<path id="XMLID_98_" d="M113.06,312.09c1.4,1.12,2.1,1.82,3.23,3.37v14.73c0,0.42,0,3.93-0.84,6.45h5.19
		c-0.7-1.96-0.98-5.05-0.98-7.15v-9.68l10.38,13.33c0.84,1.12,1.68,2.24,2.1,3.51h4.49c-0.42-0.98-0.84-2.38-0.84-6.03v-13.19
		c0-2.67,0.28-3.93,0.56-5.19h-4.63c0.42,1.4,0.7,2.52,0.7,7.01v11.08l-11.08-14.03c-1.96-2.38-2.1-3.09-2.67-4.21H113.06"/>
	<path id="XMLID_99_" d="M168.47,312.09c-1.54-0.42-3.37-0.84-6.31-0.84c-5.19,0-8.28,1.26-10.94,4.35
		c-1.96,2.38-3.09,5.61-3.09,8.7c0,4.63,2.52,11.92,13.47,11.92c4.49,0,6.87-0.98,8.56-1.54c-0.42-1.68-0.42-2.1-0.42-3.79v-2.95
		c0-2.38,0.42-3.51,0.7-4.21h-6.03c0.98,1.26,1.68,2.24,1.68,6.03v2.67c-1.12,0.42-2.1,0.84-4.35,0.84c-6.31,0-9.96-4.35-9.96-9.68
		c0-6.59,4.63-9.54,8.84-9.54c3.51,0,6.17,1.4,7.72,2.24L168.47,312.09"/>
	<path id="XMLID_100_" d="M182.22,312.09c0.7,2.1,0.84,4.49,0.84,6.17v11.92c0,3.09-0.42,4.91-0.84,6.31h12.76l1.82-4.07
		c-5.19,1.82-6.87,1.82-10.1,1.82v-8.98c1.82,0.14,2.81,0.28,5.61,1.12l2.1-3.37h-7.72v-8.56c2.52-0.14,4.07,0.28,6.73,1.4
		l1.82-3.79L182.22,312.09"/>
	<path id="XMLID_103_" d="M226.54,323.17c0,6.31,4.91,12.62,12.76,12.62c6.87,0,12.76-4.91,12.76-12.48
		c0-6.17-4.07-12.34-12.2-12.34C231.45,311.11,226.54,317.84,226.54,323.17L226.54,323.17z M230.61,322.61
		c0-4.77,3.23-8.98,8.14-8.98c5.75,0,9.54,5.61,9.54,10.66c0,3.79-2.52,8.98-8,8.98C235.66,333.27,230.61,329.35,230.61,322.61"/>
	<path id="XMLID_104_" d="M263.29,312.09c0.42,1.26,0.84,2.67,0.84,6.17v11.5c0,0.98,0,3.79-0.84,6.87h5.19
		c-0.56-1.82-0.7-3.65-0.7-5.61v-5.47c3.09,0,4.49,0.42,6.17,1.12l1.82-3.51h-8.14v-8.7c3.23,0.14,4.35,0.14,7.01,1.26l1.96-3.65
		L263.29,312.09"/>
	<path id="XMLID_106_" d="M304.53,312.09l-1.26,4.07c4.77-1.68,6.17-1.68,7.86-1.68v15.85c0,2.95-0.28,4.77-0.7,6.17h5.05
		c-0.56-1.82-0.7-3.93-0.7-5.89v-16.13c2.81,0,3.79,0.28,6.45,1.26l1.68-3.79L304.53,312.09"/>
	<path id="XMLID_107_" d="M333.71,312.09c0.42,1.12,0.98,2.81,0.98,6.31v11.92c0,3.65-0.56,5.19-0.98,6.31h5.61
		c-0.42-1.4-0.84-2.95-0.84-6.87v-4.07H349v4.35c0,3.93-0.42,5.05-0.98,6.59h5.61c-0.56-1.4-0.98-2.67-0.98-6.73v-11.36
		c0-3.79,0.42-4.91,0.98-6.59h-5.61c0.42,1.26,0.98,2.81,0.98,6.17v4.35h-10.52v-4.77c0-3.09,0.56-4.49,0.98-5.61H333.71"/>
	<path id="XMLID_108_" d="M365.69,312.09c0.7,2.1,0.98,4.49,0.98,6.17v11.92c0,3.09-0.42,4.91-0.98,6.31h12.76l1.82-4.07
		c-5.19,1.82-6.87,1.82-10.1,1.82v-8.98c1.82,0.14,2.81,0.28,5.61,1.12l2.1-3.37h-7.72v-8.56c2.52-0.14,4.07,0.28,6.73,1.4
		l1.82-3.79L365.69,312.09"/>
	<path id="XMLID_112_" d="M421.94,312.09c-1.12-0.42-2.81-1.12-4.91-1.12c-4.07,0-7.29,3.23-7.29,7.01s2.1,5.05,7.29,8.28
		c0.7,0.42,2.1,1.54,2.1,3.23c0,1.68-1.54,3.37-3.65,3.37c-2.24,0-3.65-1.68-4.77-2.95v5.19c1.12,0.28,2.24,0.7,4.21,0.7
		c5.19,0,8.28-2.95,8.28-7.01c0-2.38-0.98-4.21-4.49-6.31c-3.09-1.82-5.19-2.95-5.19-5.33c0-1.96,1.68-3.37,3.79-3.37
		c2.24,0,3.51,1.12,4.63,1.96L421.94,312.09"/>
	<path id="XMLID_113_" d="M434.01,312.09c0.56,1.54,0.98,3.09,0.98,5.75v11.64c0,4.07-0.42,5.47-0.98,7.01h5.47
		c-0.7-2.52-0.98-3.93-0.98-6.73v-11.22c0-3.65,0.42-5.05,0.98-6.45H434.01"/>
	<path id="XMLID_114_" d="M451.96,312.09l-1.26,4.07c4.77-1.68,6.17-1.68,7.86-1.68v15.85c0,2.95-0.28,4.77-0.7,6.17h5.05
		c-0.56-1.82-0.7-3.93-0.7-5.89v-16.13c2.81,0,3.79,0.28,6.45,1.26l1.68-3.79L451.96,312.09"/>
</g>
</svg>
